<svg xmlns="http://www.w3.org/2000/svg" xmlns:xlink="http://www.w3.org/1999/xlink" width="209.271" height="205.416" viewBox="0 0 209.271 205.416">
  <defs>
    <clipPath id="clip-path">
      <rect id="Rectangle_17774" data-name="Rectangle 17774" width="209.271" height="205.416" fill="none"/>
    </clipPath>
    <clipPath id="clip-path-3">
      <rect id="Rectangle_17753" data-name="Rectangle 17753" width="12.607" height="2.37" fill="#4a4a4a"/>
    </clipPath>
    <clipPath id="clip-path-4">
      <rect id="Rectangle_17756" data-name="Rectangle 17756" width="23.054" height="2.267" fill="#68a72b"/>
    </clipPath>
    <clipPath id="clip-path-5">
      <rect id="Rectangle_17759" data-name="Rectangle 17759" width="12.607" height="2.369" fill="#4a4a4a"/>
    </clipPath>
    <clipPath id="clip-path-8">
      <rect id="Rectangle_17766" data-name="Rectangle 17766" width="26.989" height="2.264" fill="#68a72b"/>
    </clipPath>
    <clipPath id="clip-path-9">
      <rect id="Rectangle_17767" data-name="Rectangle 17767" width="6.485" height="7.088" fill="#4a4a4a"/>
    </clipPath>
    <clipPath id="clip-path-10">
      <rect id="Rectangle_17770" data-name="Rectangle 17770" width="23.129" height="2.871" fill="#68a72b"/>
    </clipPath>
    <clipPath id="clip-path-11">
      <rect id="Rectangle_17771" data-name="Rectangle 17771" width="21.817" height="2.656" fill="none"/>
    </clipPath>
    <clipPath id="clip-path-12">
      <rect id="Rectangle_17772" data-name="Rectangle 17772" width="4.004" height="15.545" fill="none"/>
    </clipPath>
  </defs>
  <g id="Group_24440" data-name="Group 24440" clip-path="url(#clip-path)">
    <path id="Path_13356" data-name="Path 13356" d="M263.835,187.793h79.29v45.481h-79.29Zm-.49,45.971h80.27V187.3h-80.27Z" transform="translate(-134.343 -95.551)" fill="#e0e0e0"/>
    <rect id="Rectangle_17730" data-name="Rectangle 17730" width="52.971" height="1.554" transform="translate(139.743 116.525)" fill="#f0f0f0"/>
    <rect id="Rectangle_17731" data-name="Rectangle 17731" width="56.619" height="1.695" transform="translate(139.743 122.316)" fill="#f0f0f0"/>
    <rect id="Rectangle_17732" data-name="Rectangle 17732" width="56.619" height="1.695" transform="translate(139.743 128.174)" fill="#f0f0f0"/>
    <rect id="Rectangle_17733" data-name="Rectangle 17733" width="18.513" height="4.031" transform="translate(139.743 108.115)" fill="#f0f0f0"/>
    <rect id="Rectangle_17734" data-name="Rectangle 17734" width="79.78" height="7.396" transform="translate(129.247 91.997)" fill="#e0e0e0"/>
    <g id="Group_24439" data-name="Group 24439">
      <g id="Group_24438" data-name="Group 24438" clip-path="url(#clip-path)">
        <path id="Path_13357" data-name="Path 13357" d="M414.169,195.239a25.319,25.319,0,0,1,4.961-5.186,25.393,25.393,0,0,1-4.961,5.186" transform="translate(-211.281 -96.951)" fill="#fff"/>
        <path id="Path_13358" data-name="Path 13358" d="M419.13,195.239a25.39,25.39,0,0,1-4.961-5.186,25.356,25.356,0,0,1,4.961,5.186" transform="translate(-211.281 -96.951)" fill="#fff"/>
        <rect id="Rectangle_17735" data-name="Rectangle 17735" width="79.78" height="45.971" transform="translate(30.705)" fill="#e6e6e6"/>
        <rect id="Rectangle_17736" data-name="Rectangle 17736" width="52.97" height="1.554" transform="translate(41.202 24.528)" fill="#f0f0f0"/>
        <rect id="Rectangle_17737" data-name="Rectangle 17737" width="56.619" height="1.695" transform="translate(41.202 30.319)" fill="#f0f0f0"/>
        <rect id="Rectangle_17738" data-name="Rectangle 17738" width="56.619" height="1.695" transform="translate(41.202 36.178)" fill="#f0f0f0"/>
        <rect id="Rectangle_17739" data-name="Rectangle 17739" width="18.513" height="4.031" transform="translate(41.202 16.117)" fill="#f0f0f0"/>
        <rect id="Rectangle_17740" data-name="Rectangle 17740" width="79.78" height="7.396" transform="translate(30.705 0)" fill="#e0e0e0"/>
        <path id="Path_13359" data-name="Path 13359" d="M212.449,7.364a12.844,12.844,0,0,1,2.3-2.769,12.823,12.823,0,0,1,2.665-2.416,12.858,12.858,0,0,1-2.3,2.769,12.835,12.835,0,0,1-2.664,2.416" transform="translate(-108.375 -1.108)" fill="#fff"/>
        <path id="Path_13360" data-name="Path 13360" d="M217.409,7.364a12.817,12.817,0,0,1-2.665-2.416,12.84,12.84,0,0,1-2.3-2.769A12.827,12.827,0,0,1,215.113,4.6a12.866,12.866,0,0,1,2.3,2.769" transform="translate(-108.375 -1.108)" fill="#fff"/>
        <path id="Path_13361" data-name="Path 13361" d="M80.27,125.952H0V79.491H80.27Zm-79.78-.49H79.78V79.981H.49Z" transform="translate(0 -40.552)" fill="#e0e0e0"/>
        <rect id="Rectangle_17741" data-name="Rectangle 17741" width="52.971" height="1.554" transform="translate(10.741 63.711)" fill="#f0f0f0"/>
        <rect id="Rectangle_17742" data-name="Rectangle 17742" width="56.619" height="1.695" transform="translate(10.741 69.503)" fill="#f0f0f0"/>
        <rect id="Rectangle_17743" data-name="Rectangle 17743" width="56.619" height="1.695" transform="translate(10.741 75.361)" fill="#f0f0f0"/>
        <rect id="Rectangle_17744" data-name="Rectangle 17744" width="18.513" height="4.032" transform="translate(10.742 55.301)" fill="#f0f0f0"/>
        <rect id="Rectangle_17745" data-name="Rectangle 17745" width="79.78" height="7.396" transform="translate(0.245 39.184)" fill="#e0e0e0"/>
        <rect id="Rectangle_17746" data-name="Rectangle 17746" width="94.202" height="84.332" transform="translate(78.706 96.047)" fill="#e6e6e6"/>
        <rect id="Rectangle_17747" data-name="Rectangle 17747" width="73.791" height="76.667" transform="translate(9.65 69.481)" fill="#f0f0f0"/>
        <rect id="Rectangle_17748" data-name="Rectangle 17748" width="73.791" height="8.354" transform="translate(9.65 69.481)" fill="#e0e0e0"/>
        <path id="Path_13362" data-name="Path 13362" d="M28.913,148.5a1.551,1.551,0,1,1-1.549-1.619,1.586,1.586,0,0,1,1.549,1.619" transform="translate(-13.169 -74.932)" fill="#fff"/>
        <path id="Path_13363" data-name="Path 13363" d="M41.742,148.5a1.551,1.551,0,1,1-1.549-1.619,1.586,1.586,0,0,1,1.549,1.619" transform="translate(-19.714 -74.932)" fill="#fff"/>
        <path id="Path_13364" data-name="Path 13364" d="M54.57,148.5a1.551,1.551,0,1,1-1.549-1.619A1.586,1.586,0,0,1,54.57,148.5" transform="translate(-26.258 -74.932)" fill="#fff"/>
        <rect id="Rectangle_17749" data-name="Rectangle 17749" width="94.202" height="93.887" transform="translate(104.536 16.768)" fill="#f0f0f0"/>
        <rect id="Rectangle_17750" data-name="Rectangle 17750" width="94.202" height="10.997" transform="translate(104.536 16.768)" fill="#e0e0e0"/>
        <path id="Path_13365" data-name="Path 13365" d="M225.529,43a2.042,2.042,0,1,1-2.04-2.132A2.088,2.088,0,0,1,225.529,43" transform="translate(-112.971 -20.851)" fill="#fff"/>
        <path id="Path_13366" data-name="Path 13366" d="M241.772,41.61a2.042,2.042,0,1,1-2.95-.066,2.088,2.088,0,0,1,2.95.066" transform="translate(-121.538 -20.898)" fill="#fff"/>
        <path id="Path_13367" data-name="Path 13367" d="M259.307,43a2.042,2.042,0,1,1-2.04-2.132A2.088,2.088,0,0,1,259.307,43" transform="translate(-130.202 -20.851)" fill="#fff"/>
        <path id="Path_13368" data-name="Path 13368" d="M205.932,418.944c0,.07-34.015.128-75.966.128s-75.973-.058-75.973-.128,34.008-.128,75.973-.128,75.966.057,75.966.128" transform="translate(-27.545 -213.655)" fill="#263238"/>
        <path id="Path_13369" data-name="Path 13369" d="M287.108,242.29c-7.568-5.287-9.284-15.1-8.985-23.922.05-1.473-.112-3.025.588-4.317a3,3,0,0,1,3.653-1.554c1.094.515,1.57,1.787,2.182,2.839a8.613,8.613,0,0,0,3.453,3.3,3.282,3.282,0,0,0,3.023.274c1.271-.7,1.421-2.456,1.411-3.92q-.026-4.095-.051-8.188a13.67,13.67,0,0,1,.442-4.349,4.543,4.543,0,0,1,2.855-3.072,2.756,2.756,0,0,1,3.411,1.847,13.529,13.529,0,0,1,.041,1.824,1.542,1.542,0,0,0,.9,1.45,1.772,1.772,0,0,0,1.608-.672,19.481,19.481,0,0,0,3.5-5.278,27.006,27.006,0,0,1,3.26-5.446,7.92,7.92,0,0,1,5.366-3.01,4.742,4.742,0,0,1,4.862,3.235c.532,2.065-.673,4.159-1.984,5.831a32.69,32.69,0,0,1-6.807,6.488,2.69,2.69,0,0,0-1.138,1.224c-.318.977.606,1.946,1.571,2.267a16.934,16.934,0,0,0,3.418.385,3.294,3.294,0,0,1,2.81,1.717c.6,1.5-.652,3.066-1.884,4.094a28,28,0,0,1-8.288,4.784,9.444,9.444,0,0,0-3.079,1.5,2.71,2.71,0,0,0-.868,3.1,2.759,2.759,0,0,0,3,1.153,19.505,19.505,0,0,0,3.214-1.227c2.012-.76,4.611-.621,5.9,1.118a4.634,4.634,0,0,1,.493,4.1,10.682,10.682,0,0,1-2.22,3.62,28.169,28.169,0,0,1-12.025,8.45c-4.668,1.618-8.994,2.057-13.634.36" transform="translate(-141.866 -96.97)" fill="#568b22"/>
        <path id="Path_13370" data-name="Path 13370" d="M325.556,192.6a1.028,1.028,0,0,1-.142.139l-.435.388c-.384.339-.949.839-1.66,1.5a54.942,54.942,0,0,0-5.594,6.038c-1.09,1.357-2.223,2.895-3.408,4.566s-2.436,3.472-3.682,5.411a66.242,66.242,0,0,0-3.613,6.259c-.564,1.119-1.068,2.291-1.582,3.486l-1.553,3.632a134.494,134.494,0,0,0-5.219,14.093,65.436,65.436,0,0,0-2.44,12.017,47.906,47.906,0,0,0-.137,8.272c.076.975.151,1.732.22,2.242.028.245.05.438.068.582a1.153,1.153,0,0,1,.014.2,1.073,1.073,0,0,1-.042-.2c-.023-.144-.054-.336-.095-.579-.086-.509-.178-1.265-.27-2.241a45.769,45.769,0,0,1,.052-8.3,64.32,64.32,0,0,1,2.393-12.07,131.13,131.13,0,0,1,5.209-14.128l1.555-3.633c.513-1.191,1.022-2.373,1.592-3.5a65.517,65.517,0,0,1,3.641-6.276c1.255-1.94,2.516-3.736,3.708-5.406s2.34-3.2,3.442-4.556a52,52,0,0,1,5.671-5.994c.723-.653,1.3-1.141,1.695-1.467l.452-.367a1.1,1.1,0,0,1,.16-.118" transform="translate(-150.912 -98.255)" fill="#263238"/>
        <path id="Path_13371" data-name="Path 13371" d="M316.131,225.169a2.962,2.962,0,0,1-.143-.625c-.077-.405-.169-.994-.272-1.723-.207-1.458-.424-3.481-.655-5.713s-.476-4.248-.7-5.7c-.113-.725-.209-1.312-.281-1.717a2.922,2.922,0,0,1-.082-.636,2.928,2.928,0,0,1,.184.614c.1.4.229.982.366,1.706.278,1.448.555,3.467.785,5.7.222,2.2.424,4.2.577,5.719.073.688.136,1.267.187,1.732a2.926,2.926,0,0,1,.039.64" transform="translate(-160.178 -106.649)" fill="#263238"/>
        <path id="Path_13372" data-name="Path 13372" d="M337.191,234.746a4.061,4.061,0,0,1-.751.09c-.483.043-1.182.1-2.044.2-1.725.186-4.1.527-6.7,1.017s-4.937,1.043-6.615,1.489c-.841.217-1.516.41-1.984.541a4.05,4.05,0,0,1-.735.181,3.971,3.971,0,0,1,.7-.282c.459-.162,1.129-.385,1.965-.626,1.669-.494,4.006-1.074,6.616-1.571a66.394,66.394,0,0,1,6.731-.941c.867-.075,1.57-.105,2.057-.115a3.978,3.978,0,0,1,.756.016" transform="translate(-162.41 -119.744)" fill="#263238"/>
        <path id="Path_13373" data-name="Path 13373" d="M291.746,259.618a.954.954,0,0,1-.129-.23l-.322-.681c-.277-.593-.655-1.461-1.109-2.54-.908-2.157-2.069-5.176-3.306-8.525s-2.368-6.376-3.23-8.549l-1.029-2.571c-.111-.28-.2-.511-.276-.7a1,1,0,0,1-.08-.252.957.957,0,0,1,.129.23l.322.681c.277.593.655,1.461,1.109,2.539.909,2.157,2.07,5.176,3.306,8.526s2.368,6.375,3.23,8.548c.423,1.056.77,1.925,1.028,2.57l.276.7a.968.968,0,0,1,.079.252" transform="translate(-143.995 -120.174)" fill="#263238"/>
        <path id="Path_13374" data-name="Path 13374" d="M326.64,268.2a1,1,0,0,1-.248.1l-.726.243-2.68.868c-2.262.734-5.375,1.783-8.813,2.947s-6.565,2.186-8.843,2.873c-1.139.344-2.063.613-2.705.786l-.741.194a.135.135,0,1,1-.015-.053l.726-.243,2.679-.869c2.262-.733,5.375-1.783,8.814-2.947s6.563-2.186,8.841-2.872c1.139-.344,2.063-.613,2.706-.786l.741-.194a.976.976,0,0,1,.264-.05" transform="translate(-153.869 -136.817)" fill="#263238"/>
        <path id="Path_13375" data-name="Path 13375" d="M301.962,14.924l-2.525.9-1.079-3.3A11.053,11.053,0,0,0,284.2,5.276a11.8,11.8,0,0,0-6.932,14.8l1.079,3.3-2.533.906a4.028,4.028,0,0,0-2.361,5.035l7.023,21.451a3.783,3.783,0,0,0,4.829,2.5l26.146-9.352a4.048,4.048,0,0,0,2.383-5.083l-7.023-21.451a3.779,3.779,0,0,0-4.851-2.455M282.035,18.37a6.466,6.466,0,0,1,3.8-8.111,6.057,6.057,0,0,1,7.756,3.977l1.079,3.3-11.556,4.133Zm14.7,19.032,1.793,5.478a.44.44,0,0,1-.281.549l-2.509.9a.407.407,0,0,1-.513-.265l-1.793-5.478a4.9,4.9,0,0,1-4.422-3.431,5.149,5.149,0,0,1,3.033-6.456,4.821,4.821,0,0,1,6.179,3.161,5.233,5.233,0,0,1-1.486,5.544" transform="translate(-139.398 -2.371)" fill="#568b22"/>
        <path id="Path_13376" data-name="Path 13376" d="M304.518,27.345c.024.066-4.678,1.827-10.5,3.931s-10.565,3.758-10.589,3.692,4.677-1.826,10.5-3.932,10.564-3.758,10.588-3.692" transform="translate(-144.588 -13.949)" fill="#263238"/>
        <path id="Path_13377" data-name="Path 13377" d="M317.676,29.19a.543.543,0,0,1,.056.128l.143.384.524,1.485,1.879,5.476,2.757,8.131c.511,1.535,1.071,3.13,1.607,4.814a7.208,7.208,0,0,1,.367,2.688,3.58,3.58,0,0,1-.4,1.356,3.7,3.7,0,0,1-.925,1.091,8.716,8.716,0,0,1-2.487,1.27l-2.525.907L313.9,58.628l-8.09,2.88-5.461,1.921-1.489.51-.389.126a.577.577,0,0,1-.136.035.584.584,0,0,1,.126-.059l.381-.15,1.472-.555,5.434-2,8.071-2.931,4.769-1.723,2.523-.91a8.5,8.5,0,0,0,2.413-1.229,3.454,3.454,0,0,0,.863-1.014,3.334,3.334,0,0,0,.368-1.259,6.991,6.991,0,0,0-.355-2.593c-.528-1.667-1.086-3.277-1.591-4.809l-2.7-8.149-1.8-5.5c-.2-.637-.363-1.139-.478-1.5-.049-.161-.088-.29-.119-.392a.567.567,0,0,1-.032-.136" transform="translate(-152.194 -14.891)" fill="#263238"/>
        <path id="Path_13378" data-name="Path 13378" d="M298.814,14.413c-.013.022-.26-.131-.742-.325a6.528,6.528,0,0,0-2.138-.429,7.276,7.276,0,0,0-3.155.6,7.05,7.05,0,0,0-2.995,2.5,6.613,6.613,0,0,0-1.151,3.72,11.428,11.428,0,0,0,.5,3.205c.259.894.523,1.6.7,2.1a5.247,5.247,0,0,1,.254.773,4.668,4.668,0,0,1-.346-.737c-.2-.483-.493-1.184-.776-2.082a11.075,11.075,0,0,1-.561-3.258,6.755,6.755,0,0,1,1.175-3.862,7.171,7.171,0,0,1,3.112-2.575,7.272,7.272,0,0,1,3.258-.561,6.135,6.135,0,0,1,2.168.518,4.339,4.339,0,0,1,.533.291c.117.075.175.118.171.126" transform="translate(-147.124 -6.869)" fill="#263238"/>
        <path id="Path_13379" data-name="Path 13379" d="M307.092,53.892a1.389,1.389,0,0,1,.248-.123,5.207,5.207,0,0,1,.756-.272,5.379,5.379,0,0,1,1.273-.211,4.3,4.3,0,0,1,1.718.256,5.315,5.315,0,0,1,2.972,3.414,4.925,4.925,0,0,1,.023,2.813,6.374,6.374,0,0,1-1.6,2.648l.032-.13c.651,1.785,1.359,3.729,2.1,5.75l.045.122-.124.042-1.12.376-2.438.816-.121.04-.04-.121c-.671-2.031-1.406-3.945-1.94-5.776l.106.083a4.891,4.891,0,0,1-2.622-1.037,5.886,5.886,0,0,1-1.645-1.965,4.541,4.541,0,0,1-.519-2.206,5.2,5.2,0,0,1,.411-1.893,5.148,5.148,0,0,1,1.643-2.154,3.109,3.109,0,0,1,.847-.473,8.925,8.925,0,0,0-.8.532,5.232,5.232,0,0,0-1.557,2.148,4.642,4.642,0,0,0,.151,3.956,5.731,5.731,0,0,0,1.6,1.883,4.687,4.687,0,0,0,2.5.975l.083,0,.023.078c.54,1.817,1.28,3.724,1.957,5.764l-.161-.08,2.437-.818,1.12-.375-.08.164c-.732-2.024-1.436-3.968-2.082-5.755l-.026-.072.058-.058a6.174,6.174,0,0,0,1.548-2.534,4.719,4.719,0,0,0,0-2.689,5.181,5.181,0,0,0-2.83-3.335,4.245,4.245,0,0,0-1.662-.28,5.566,5.566,0,0,0-1.256.173c-.673.173-1.015.34-1.024.319" transform="translate(-155.179 -27.18)" fill="#263238"/>
        <path id="Path_13380" data-name="Path 13380" d="M217.209,193.088l-48.928-.226a10.658,10.658,0,0,1-10.609-10.7L158.192,59.5A10.658,10.658,0,0,1,168.9,48.884l48.928.226a10.658,10.658,0,0,1,10.608,10.7l-.518,122.662a10.658,10.658,0,0,1-10.707,10.613" transform="translate(-80.435 -24.938)" fill="#455a64"/>
        <path id="Path_13381" data-name="Path 13381" d="M221.14,57.752l-9.486-.044a2.356,2.356,0,0,0-2.314,2.4l-.007,1.72a2.356,2.356,0,0,1-2.314,2.4l-18.491-.085a2.359,2.359,0,0,1-2.294-2.418L186.243,60a2.359,2.359,0,0,0-2.294-2.419l-3.336-.015-8.3-.038a7.464,7.464,0,0,0-7.5,7.433l-.506,119.727a7.464,7.464,0,0,0,7.43,7.5l48.83.225a7.465,7.465,0,0,0,7.5-7.433l.506-119.728a7.465,7.465,0,0,0-7.43-7.5" transform="translate(-83.819 -29.347)" fill="#fff"/>
        <path id="Path_13382" data-name="Path 13382" d="M228.395,288.307l-36.31-.168c-.376,0-.679-.411-.676-.914l.04-9.5c0-.5.308-.909.684-.908l36.31.168c.376,0,.679.411.676.914l-.04,9.5c0,.5-.308.91-.684.908" transform="translate(-97.645 -141.216)" fill="#68a72b"/>
        <text id="SING_UP" data-name="SING UP" transform="matrix(1, 0.005, -0.004, 1, 104.298, 142.168)" fill="#e8e8e3" font-size="3" font-family="Montserrat-Regular, Montserrat"><tspan x="0" y="0">SING UP</tspan></text>
        <rect id="Rectangle_17751" data-name="Rectangle 17751" width="2.311" height="12.597" transform="translate(89.065 65.845) rotate(-89.735)" fill="#e8505b"/>
        <g id="Group_24410" data-name="Group 24410" transform="translate(89.065 63.533)">
          <g id="Group_24409" data-name="Group 24409">
            <g id="Group_24408" data-name="Group 24408" clip-path="url(#clip-path-3)">
              <rect id="Rectangle_17752" data-name="Rectangle 17752" width="2.311" height="12.597" transform="translate(0 2.312) rotate(-89.735)" fill="#4a4a4a"/>
            </g>
          </g>
        </g>
        <path id="Path_13383" data-name="Path 13383" d="M231.19,149.829a1.117,1.117,0,0,0,.288-.068.775.775,0,0,0,.475-.659c0-.781,0-1.917-.007-3.375,0-.734,0-1.549,0-2.44q0-.334,0-.683a.94.94,0,0,0-.137-.642.722.722,0,0,0-.579-.3h-.767l-7.076-.014-40.972-.152a.663.663,0,0,0-.54.273.944.944,0,0,0-.127.64q0,.746-.007,1.487-.006,1.481-.013,2.943,0,.731-.007,1.456a4.291,4.291,0,0,0,.021.689.663.663,0,0,0,.383.442.738.738,0,0,0,.3.052l.359,0,.715,0,1.421.007,10.879.058,18.42.112,12.418.1,3.376.04.878.017c.2.005.3.015.3.015s-.1.008-.3.011l-.878.009-3.377.008-12.418-.017-18.42-.058-10.878-.043-1.421-.006-.715,0h-.359a.993.993,0,0,1-.4-.072.915.915,0,0,1-.529-.61,1.428,1.428,0,0,1-.03-.392v-.362q0-.725.006-1.456.006-1.461.012-2.943,0-.741.006-1.487a3.321,3.321,0,0,1,.012-.391.9.9,0,0,1,.164-.4.918.918,0,0,1,.747-.378l40.971.227,7.076.051.767.006a.855.855,0,0,1,.685.359,1.065,1.065,0,0,1,.157.719q0,.349-.005.683c-.008.892-.015,1.707-.022,2.44-.018,1.46-.032,2.6-.042,3.379a.8.8,0,0,1-.517.679.59.59,0,0,1-.3.043" transform="translate(-92.573 -72.053)" fill="#e0e0e0"/>
        <rect id="Rectangle_17754" data-name="Rectangle 17754" width="2.161" height="23.044" transform="translate(92.446 74.585) rotate(-89.736)" fill="#e8505b"/>
        <g id="Group_24413" data-name="Group 24413" transform="translate(92.446 72.425)">
          <g id="Group_24412" data-name="Group 24412">
            <g id="Group_24411" data-name="Group 24411" clip-path="url(#clip-path-4)">
              <rect id="Rectangle_17755" data-name="Rectangle 17755" width="2.161" height="23.044" transform="translate(0 2.161) rotate(-89.736)" fill="#68a72b"/>
            </g>
          </g>
        </g>
        <rect id="Rectangle_17757" data-name="Rectangle 17757" width="2.311" height="12.597" transform="translate(88.976 86.94) rotate(-89.735)" fill="#e8505b"/>
        <g id="Group_24416" data-name="Group 24416" transform="translate(88.976 84.628)">
          <g id="Group_24415" data-name="Group 24415">
            <g id="Group_24414" data-name="Group 24414" clip-path="url(#clip-path-5)">
              <rect id="Rectangle_17758" data-name="Rectangle 17758" width="2.311" height="12.597" transform="translate(0 2.311) rotate(-89.735)" fill="#4a4a4a"/>
            </g>
          </g>
        </g>
        <path id="Path_13384" data-name="Path 13384" d="M230.774,192.892a2.062,2.062,0,0,0,.29-.055,1.016,1.016,0,0,0,.62-.555,1.325,1.325,0,0,0,.085-.621q0-.357,0-.778c0-.564,0-1.212,0-1.942s0-1.544,0-2.432v-.681a1.064,1.064,0,0,0-.143-.647.964.964,0,0,0-.532-.413,3.038,3.038,0,0,0-.74-.042l-7.052-.014-40.829-.151a.9.9,0,0,0-.894.789c-.015.466-.007.981-.013,1.467q-.007,1.476-.013,2.933,0,.728-.006,1.451a3.027,3.027,0,0,0,.031.684.9.9,0,0,0,.358.5.969.969,0,0,0,.609.157l.713,0,1.416.007,10.841.057,18.356.112,12.374.1,3.364.04.875.017c.2.005.3.015.3.015s-.1.008-.3.011l-.875.009-3.364.009-12.375-.017-18.356-.057-10.841-.043-1.416-.006-.712,0a1.229,1.229,0,0,1-.75-.2,1.159,1.159,0,0,1-.459-.644,3.12,3.12,0,0,1-.04-.752q0-.722.005-1.45.006-1.456.012-2.933c.006-.5,0-.972.014-1.5a1.156,1.156,0,0,1,1.149-1.013l40.829.226,7.051.051a3.063,3.063,0,0,1,.78.053,1.1,1.1,0,0,1,.6.475,1.194,1.194,0,0,1,.157.716c0,.232,0,.459,0,.681-.008.888-.016,1.7-.022,2.432s-.015,1.378-.02,1.942q-.005.421-.009.778a1.374,1.374,0,0,1-.1.642,1.033,1.033,0,0,1-.66.559.786.786,0,0,1-.3.03" transform="translate(-92.48 -94.022)" fill="#e0e0e0"/>
        <rect id="Rectangle_17760" data-name="Rectangle 17760" width="2.312" height="12.598" transform="translate(88.882 108.941) rotate(-89.737)" fill="#e8505b"/>
        <g id="Group_24419" data-name="Group 24419" transform="translate(88.883 106.629)">
          <g id="Group_24418" data-name="Group 24418">
            <g id="Group_24417" data-name="Group 24417" clip-path="url(#clip-path-5)">
              <rect id="Rectangle_17761" data-name="Rectangle 17761" width="2.312" height="12.598" transform="translate(0 2.312) rotate(-89.737)" fill="#4a4a4a"/>
            </g>
          </g>
        </g>
        <path id="Path_13385" data-name="Path 13385" d="M230.584,237.8a2.068,2.068,0,0,0,.29-.054,1.015,1.015,0,0,0,.62-.555,1.319,1.319,0,0,0,.085-.621c0-.238,0-.5,0-.778,0-.564,0-1.212,0-1.941s0-1.544,0-2.432q0-.333,0-.681a1.071,1.071,0,0,0-.143-.646.966.966,0,0,0-.532-.413,3.041,3.041,0,0,0-.741-.042l-7.052-.014-40.829-.151a.9.9,0,0,0-.894.789c-.015.466-.008.98-.013,1.467q-.007,1.475-.013,2.933,0,.728-.006,1.451a3.085,3.085,0,0,0,.03.683.9.9,0,0,0,.358.5.967.967,0,0,0,.609.157l.713,0,1.416.007,10.841.057,18.356.112,12.374.1,3.364.04.876.017c.2,0,.3.014.3.014s-.1.008-.3.011l-.876.009-3.365.009-12.374-.017-18.356-.057-10.841-.043-1.416-.006-.713,0a1.232,1.232,0,0,1-.75-.2,1.158,1.158,0,0,1-.458-.644,3.146,3.146,0,0,1-.04-.752q0-.722.005-1.45.007-1.456.012-2.933c.005-.5,0-.972.015-1.5a1.155,1.155,0,0,1,1.149-1.013l40.829.226,7.051.051a3.042,3.042,0,0,1,.78.053,1.1,1.1,0,0,1,.6.475,1.191,1.191,0,0,1,.157.716q0,.348-.005.681c-.007.888-.015,1.7-.021,2.432s-.015,1.378-.02,1.942q-.005.421-.01.778a1.37,1.37,0,0,1-.1.643,1.032,1.032,0,0,1-.66.558.8.8,0,0,1-.3.03" transform="translate(-92.383 -116.934)" fill="#e0e0e0"/>
        <rect id="Rectangle_17763" data-name="Rectangle 17763" width="2.161" height="23.045" transform="translate(92.357 95.68) rotate(-89.736)" fill="#e8505b"/>
        <g id="Group_24422" data-name="Group 24422" transform="translate(92.357 93.519)">
          <g id="Group_24421" data-name="Group 24421">
            <g id="Group_24420" data-name="Group 24420" clip-path="url(#clip-path-4)">
              <rect id="Rectangle_17764" data-name="Rectangle 17764" width="2.161" height="23.045" transform="translate(0 2.161) rotate(-89.736)" fill="#68a72b"/>
            </g>
          </g>
        </g>
        <path id="Path_13386" data-name="Path 13386" d="M190.733,237.459a1.009,1.009,0,1,1-1-1.079,1.043,1.043,0,0,1,1,1.079" transform="translate(-96.273 -120.587)" fill="#e8505b"/>
        <path id="Path_13387" data-name="Path 13387" d="M197.106,237.488a1.009,1.009,0,1,1-1-1.079,1.042,1.042,0,0,1,1,1.079" transform="translate(-99.524 -120.602)" fill="#e8505b"/>
        <path id="Path_13388" data-name="Path 13388" d="M203.478,237.518a1.009,1.009,0,1,1-1-1.079,1.042,1.042,0,0,1,1,1.079" transform="translate(-102.775 -120.617)" fill="#e8505b"/>
        <path id="Path_13389" data-name="Path 13389" d="M209.851,237.547a1.009,1.009,0,1,1-1-1.079,1.042,1.042,0,0,1,1,1.079" transform="translate(-106.026 -120.632)" fill="#e8505b"/>
        <path id="Path_13390" data-name="Path 13390" d="M216.224,237.576a1.01,1.01,0,1,1-1-1.079,1.042,1.042,0,0,1,1,1.079" transform="translate(-109.277 -120.647)" fill="#e8505b"/>
        <path id="Path_13391" data-name="Path 13391" d="M222.6,237.606a1.009,1.009,0,1,1-1-1.079,1.042,1.042,0,0,1,1,1.079" transform="translate(-112.528 -120.662)" fill="#e8505b"/>
        <path id="Path_13392" data-name="Path 13392" d="M228.97,237.636a1.009,1.009,0,1,1-1-1.079,1.043,1.043,0,0,1,1,1.079" transform="translate(-115.779 -120.678)" fill="#e8505b"/>
        <path id="Path_13393" data-name="Path 13393" d="M235.342,237.665a1.009,1.009,0,1,1-1-1.079,1.043,1.043,0,0,1,1,1.079" transform="translate(-119.03 -120.692)" fill="#e8505b"/>
        <path id="Path_13394" data-name="Path 13394" d="M241.715,237.7a1.009,1.009,0,1,1-1-1.079,1.042,1.042,0,0,1,1,1.079" transform="translate(-122.281 -120.708)" fill="#e8505b"/>
        <g id="Group_24425" data-name="Group 24425" transform="translate(92.445 115.793)">
          <g id="Group_24424" data-name="Group 24424">
            <g id="Group_24423" data-name="Group 24423" clip-path="url(#clip-path-8)">
              <path id="Path_13395" data-name="Path 13395" d="M190.733,237.459a1.009,1.009,0,1,1-1-1.079,1.043,1.043,0,0,1,1,1.079" transform="translate(-188.717 -236.38)" fill="#68a72b"/>
              <path id="Path_13396" data-name="Path 13396" d="M197.106,237.488a1.009,1.009,0,1,1-1-1.079,1.042,1.042,0,0,1,1,1.079" transform="translate(-191.969 -236.395)" fill="#68a72b"/>
              <path id="Path_13397" data-name="Path 13397" d="M203.478,237.518a1.009,1.009,0,1,1-1-1.079,1.042,1.042,0,0,1,1,1.079" transform="translate(-195.219 -236.41)" fill="#68a72b"/>
              <path id="Path_13398" data-name="Path 13398" d="M209.851,237.547a1.009,1.009,0,1,1-1-1.079,1.042,1.042,0,0,1,1,1.079" transform="translate(-198.47 -236.425)" fill="#68a72b"/>
              <path id="Path_13399" data-name="Path 13399" d="M216.224,237.576a1.01,1.01,0,1,1-1-1.079,1.042,1.042,0,0,1,1,1.079" transform="translate(-201.721 -236.44)" fill="#68a72b"/>
              <path id="Path_13400" data-name="Path 13400" d="M222.6,237.606a1.009,1.009,0,1,1-1-1.079,1.042,1.042,0,0,1,1,1.079" transform="translate(-204.973 -236.455)" fill="#68a72b"/>
              <path id="Path_13401" data-name="Path 13401" d="M228.97,237.636a1.009,1.009,0,1,1-1-1.079,1.043,1.043,0,0,1,1,1.079" transform="translate(-208.224 -236.47)" fill="#68a72b"/>
              <path id="Path_13402" data-name="Path 13402" d="M235.342,237.665a1.009,1.009,0,1,1-1-1.079,1.043,1.043,0,0,1,1,1.079" transform="translate(-211.475 -236.485)" fill="#68a72b"/>
              <path id="Path_13403" data-name="Path 13403" d="M241.715,237.7a1.009,1.009,0,1,1-1-1.079,1.042,1.042,0,0,1,1,1.079" transform="translate(-214.725 -236.5)" fill="#68a72b"/>
            </g>
          </g>
        </g>
        <path id="Path_13404" data-name="Path 13404" d="M230.686,90.635a1.9,1.9,0,0,0,1.132-1.757,1.785,1.785,0,1,0-3.563-.017,1.9,1.9,0,0,0,1.135,1.774c-2.741.413-2.617,3.393-2.617,3.393l6.483.03s.148-3.012-2.57-3.423" transform="translate(-115.686 -44.366)" fill="#e8505b"/>
        <g id="Group_24428" data-name="Group 24428" transform="translate(111.086 42.602)">
          <g id="Group_24427" data-name="Group 24427">
            <g id="Group_24426" data-name="Group 24426" clip-path="url(#clip-path-9)">
              <path id="Path_13405" data-name="Path 13405" d="M230.686,90.635a1.9,1.9,0,0,0,1.132-1.757,1.785,1.785,0,1,0-3.563-.017,1.9,1.9,0,0,0,1.135,1.774c-2.741.413-2.617,3.393-2.617,3.393l6.483.03s.148-3.012-2.57-3.423" transform="translate(-226.772 -86.969)" fill="#4a4a4a"/>
            </g>
          </g>
        </g>
        <rect id="Rectangle_17768" data-name="Rectangle 17768" width="2.764" height="23.117" transform="translate(102.405 54.298) rotate(-89.735)" fill="#e8505b"/>
        <g id="Group_24431" data-name="Group 24431" transform="translate(102.405 51.535)">
          <g id="Group_24430" data-name="Group 24430">
            <g id="Group_24429" data-name="Group 24429" clip-path="url(#clip-path-10)">
              <rect id="Rectangle_17769" data-name="Rectangle 17769" width="2.764" height="23.117" transform="translate(0 2.764) rotate(-89.735)" fill="#68a72b"/>
            </g>
          </g>
        </g>
        <path id="Path_13406" data-name="Path 13406" d="M69.658,134.619a1.409,1.409,0,0,1-.227.025l-.667.049a7.55,7.55,0,0,0-1.075.144c-.21.043-.442.06-.679.13l-.759.211a12.507,12.507,0,0,0-3.612,1.791,12.81,12.81,0,0,0-3.554,3.957,13.443,13.443,0,0,0-1.246,2.845,14.34,14.34,0,0,0-.511,5.1c.016.3.081.6.119.9a6.377,6.377,0,0,0,.171.907,12.8,12.8,0,0,0,1.372,3.555,12.645,12.645,0,0,0,5.966,5.422,11.639,11.639,0,0,0,4.207.945,11.377,11.377,0,0,0,4.392-.632l.431-.158.057-.021.051.026,6.178,3.137-.184.157-1.912-5.938-.024-.073.055-.054a13.2,13.2,0,0,0,3.243-5.393,13.552,13.552,0,0,0,.471-5.742,13.216,13.216,0,0,0-4.413-8.282,13.568,13.568,0,0,0-3.035-1.931,13.289,13.289,0,0,0-2.563-.808l-.961-.164-.709-.049-.434-.033a.732.732,0,0,1-.147-.019.808.808,0,0,1,.148,0l.436.012.714.029.97.145a13.053,13.053,0,0,1,2.6.778A13.546,13.546,0,0,1,77.61,137.5a13.3,13.3,0,0,1,2.851,3.442,13.462,13.462,0,0,1,1.673,4.931,13.746,13.746,0,0,1-.458,5.839,13.41,13.41,0,0,1-3.291,5.5l.031-.128,1.922,5.935.1.3-.281-.143-6.18-3.133.108,0-.44.162a11.615,11.615,0,0,1-4.49.645,11.871,11.871,0,0,1-4.3-.97,12.87,12.87,0,0,1-6.077-5.54,13,13,0,0,1-1.386-3.624,6.608,6.608,0,0,1-.171-.923c-.038-.308-.1-.611-.118-.917a14.013,14.013,0,0,1-.025-1.805,13.862,13.862,0,0,1,.566-3.37,13.6,13.6,0,0,1,1.279-2.881,12.882,12.882,0,0,1,3.63-3.982,12.422,12.422,0,0,1,3.669-1.77l.769-.2a14.5,14.5,0,0,1,1.77-.238l.671-.023a1.489,1.489,0,0,1,.228,0" transform="translate(-29.105 -68.673)" fill="#568b22"/>
        <path id="Path_13407" data-name="Path 13407" d="M80.531,153.222h-.905l-1.976-2.754v-1.807s-1.4-.086-1.235,2.28-.013,1.764-.013,1.764a14.679,14.679,0,0,0-3.218.269,30.481,30.481,0,0,0-.291,4.739,1.733,1.733,0,0,0,1.228,1.746,1.284,1.284,0,0,0,.319.043c.741,0,4.528-.6,4.528-.6h1.564Z" transform="translate(-37.185 -75.838)" fill="#568b22"/>
        <path id="Path_13408" data-name="Path 13408" d="M91.583,156.959l-.557,6.192h-1.55v-6.067Z" transform="translate(-45.645 -80.071)" fill="#568b22"/>
        <path id="Path_13409" data-name="Path 13409" d="M123.584,409.87v-4.191l-7.51-.05-.062,6.331.465.035c2.072.134,10.542.329,11.93-.1,1.548-.48-4.824-2.024-4.824-2.024" transform="translate(-59.183 -206.928)" fill="#68a72b"/>
        <path id="Path_13410" data-name="Path 13410" d="M128.612,417.483c0,.071-2.809.128-6.274.128s-6.274-.057-6.274-.128,2.808-.127,6.274-.127,6.274.057,6.274.127" transform="translate(-59.209 -212.911)" fill="#263238"/>
        <path id="Path_13411" data-name="Path 13411" d="M131.713,415.232c-.062-.032-.009-.254.152-.472s.357-.335.407-.286-.053.235-.2.437-.3.354-.358.321" transform="translate(-67.179 -211.435)" fill="#263238"/>
        <path id="Path_13412" data-name="Path 13412" d="M132.684,415.642c-.065-.024-.031-.273.116-.534s.342-.419.4-.376-.038.258-.174.5-.272.435-.339.409" transform="translate(-67.671 -211.569)" fill="#263238"/>
        <path id="Path_13413" data-name="Path 13413" d="M118.426,416.046c-.029.021-.141-.09-.3-.274a4.968,4.968,0,0,0-.658-.659,1.727,1.727,0,0,0-.813-.355c-.228-.03-.378,0-.391-.032s.126-.132.4-.148a1.492,1.492,0,0,1,.962.333,2.719,2.719,0,0,1,.649.756c.128.216.187.361.158.38" transform="translate(-59.309 -211.492)" fill="#263238"/>
        <path id="Path_13414" data-name="Path 13414" d="M131.031,414.393c.037.059-.092.2-.307.283s-.407.052-.417-.017.141-.152.329-.222.357-.1.394-.044" transform="translate(-66.475 -211.383)" fill="#263238"/>
        <path id="Path_13415" data-name="Path 13415" d="M130.611,413.472c.007.071-.193.131-.447.134s-.456-.051-.45-.121.2-.13.447-.133.443.051.45.121" transform="translate(-66.172 -210.867)" fill="#263238"/>
        <path id="Path_13416" data-name="Path 13416" d="M161.336,409.87v-4.191l-7.511-.05-.062,6.267.465.034c2.072.134,10.542.393,11.93-.036,1.548-.48-4.824-2.024-4.824-2.024" transform="translate(-78.441 -206.928)" fill="#68a72b"/>
        <path id="Path_13417" data-name="Path 13417" d="M166.363,417.5c0,.071-2.809.128-6.274.128s-6.274-.057-6.274-.128,2.808-.128,6.274-.128,6.274.057,6.274.128" transform="translate(-78.467 -212.92)" fill="#263238"/>
        <path id="Path_13418" data-name="Path 13418" d="M169.465,415.232c-.062-.032-.009-.254.153-.472s.357-.335.406-.286-.053.235-.2.437-.3.354-.358.321" transform="translate(-86.438 -211.435)" fill="#263238"/>
        <path id="Path_13419" data-name="Path 13419" d="M170.436,415.642c-.065-.024-.031-.273.116-.534s.342-.419.4-.376-.038.258-.174.5-.272.435-.338.409" transform="translate(-86.93 -211.569)" fill="#263238"/>
        <path id="Path_13420" data-name="Path 13420" d="M156.178,416.046c-.029.021-.141-.09-.3-.274a4.938,4.938,0,0,0-.658-.659,1.725,1.725,0,0,0-.813-.355c-.228-.03-.378,0-.391-.032s.126-.132.4-.148a1.494,1.494,0,0,1,.963.333,2.736,2.736,0,0,1,.649.756c.128.216.186.361.158.38" transform="translate(-78.568 -211.492)" fill="#263238"/>
        <path id="Path_13421" data-name="Path 13421" d="M168.783,414.393c.037.059-.092.2-.307.283s-.407.052-.417-.017.141-.152.329-.222.358-.1.395-.044" transform="translate(-85.734 -211.383)" fill="#263238"/>
        <path id="Path_13422" data-name="Path 13422" d="M168.361,413.472c.007.071-.193.131-.447.134s-.455-.051-.451-.121.205-.13.447-.133.443.051.45.121" transform="translate(-85.43 -210.867)" fill="#263238"/>
        <path id="Path_13423" data-name="Path 13423" d="M152.79,153.514c-.2-.2-.678-.107-.678-.107a2.6,2.6,0,0,0,0-.849c-.088-.277-.706-.223-.706-.223a2.883,2.883,0,0,1,.016-.7.245.245,0,0,0-.144-.246,2.274,2.274,0,0,0-.923-.169c-.378-.27,1.152-2.41,1.719-3.1s.466-1.218-.04-1.218c-.345,0-2.131,2.057-2.677,2.748s-2.006,2.611-2.056,1.078a3.94,3.94,0,0,0-1.051-2.89c-.385-.2-.8.266-.587.692a5.622,5.622,0,0,1,.343,1.508,3.656,3.656,0,0,1-.057,1.239,14.228,14.228,0,0,1-.659,2.212l-.038-.021s-10.692,10.252-11.463,10.984c-.694.658-14.587-.779-17.37-1.074a19.277,19.277,0,0,0-2.864-.2c-1.207.053-1.422.224-2.631.241a59.414,59.414,0,0,0-9.079.8,7.518,7.518,0,0,0-5.908,5.124c-2.809,8.767-9.165,29.523-10.3,41.183a48.732,48.732,0,0,0-2.294,4.738c-.787,2.143-.6,2.216-.331,2.266.712.132,1.527-3.717,1.832-2.788s-1.544,4.591-.794,4.7c.978.14,1.757-3.9,1.848-4.243s.582-.217.483.083c-.142.432-1.52,5-.561,5.148.531.081.589-.887.589-.887s.974-4.37,1.425-4.286-.028,2.671-.254,3.531.091,1.3.549,1.087c.313-.146,1.065-2.764,1.269-3.62s.718-3.213,1.41-1.845a3.942,3.942,0,0,0,2.171,2.177.48.48,0,0,0,.241-.875,5.559,5.559,0,0,1-.947-1.223,3.645,3.645,0,0,1-.471-1.147,12.665,12.665,0,0,1-.341-2.479l-.08-.5c1.1-5.434,4.259-21.376,8.8-31.561l1.87,3.849.812,2.849-4.984,12.314,21.266-.28-3.17-12.217,3.852-12.738h0c4.169.093,14.876.248,16.675-.556,2.243-1,13.852-15.636,13.852-15.636h0a27.7,27.7,0,0,0,2.17-1.883s.692-.56.266-1" transform="translate(-42.231 -74.945)" fill="#ffbe9d"/>
        <path id="Path_13424" data-name="Path 13424" d="M104.8,204.682c.616-2.106,3.786-12.519,3.786-12.519s1.556,8.49,1.147,9.512A18.02,18.02,0,0,1,108.4,204.2c-3.6,5.476-3.124,8.212-3.124,8.212l21.721-.662c.053-3.038-1.745-10.1-2.121-11.225s.871-4.818.871-4.818,2.455-2.493,2.36-3.776a20.677,20.677,0,0,0-.428-3.42l13.217.486-.415-8.967-19-1.9c-.657,1.871-6.64.954-6.64.954-6.459.212-6.85,1.4-9.543,3.485s-7.129,20-7.129,20Z" transform="translate(-50.079 -90.872)" fill="#568b22"/>
        <path id="Path_13425" data-name="Path 13425" d="M129.867,227.186a4.664,4.664,0,0,1-1.145.058c-.707,0-1.684-.048-2.758-.156s-2.04-.26-2.734-.4a4.623,4.623,0,0,1-1.11-.285,5.681,5.681,0,0,1,1.139.107c.7.091,1.663.213,2.73.32s2.037.18,2.74.23a5.65,5.65,0,0,1,1.137.122" transform="translate(-62.298 -115.493)" fill="#263238"/>
        <path id="Path_13426" data-name="Path 13426" d="M132.2,224.23a5.065,5.065,0,0,1-1.186.4,21.486,21.486,0,0,1-5.989.711,5.107,5.107,0,0,1-1.248-.115,7.66,7.66,0,0,1,1.247-.065c.768-.024,1.827-.08,2.99-.218s2.205-.332,2.957-.488a7.712,7.712,0,0,1,1.228-.229" transform="translate(-63.144 -114.385)" fill="#263238"/>
        <path id="Path_13427" data-name="Path 13427" d="M153.991,207.417a4.728,4.728,0,0,1-.148,1.108c-.126.677-.325,1.608-.576,2.629s-.505,1.939-.706,2.6a4.689,4.689,0,0,1-.381,1.051,5.048,5.048,0,0,1,.207-1.1c.185-.765.4-1.643.633-2.612s.458-1.844.647-2.608a5.066,5.066,0,0,1,.325-1.069" transform="translate(-77.629 -105.812)" fill="#263238"/>
        <path id="Path_13428" data-name="Path 13428" d="M105.277,227.9a23.151,23.151,0,0,1-3.346-.78,23.185,23.185,0,0,1-3.279-1.027,23.237,23.237,0,0,1,3.346.78,23.2,23.2,0,0,1,3.279,1.027" transform="translate(-50.327 -115.333)" fill="#263238"/>
        <path id="Path_13429" data-name="Path 13429" d="M152.591,188.93a1.77,1.77,0,0,1-.562,0,5.71,5.71,0,0,1-1.494-.356,6.261,6.261,0,0,1-1.949-1.187,6.107,6.107,0,0,1-1.594-2.3,6.307,6.307,0,0,1-.439-2.761,4.331,4.331,0,0,1,.671-2.185,2.259,2.259,0,0,1,1.239-.913,1.527,1.527,0,0,1,.418-.056c.1,0,.146.013.146.021,0,.024-.2.012-.534.129a2.271,2.271,0,0,0-1.12.919,5.592,5.592,0,0,0-.144,4.751,6.056,6.056,0,0,0,1.516,2.217A6.4,6.4,0,0,0,150.6,188.4a9.64,9.64,0,0,0,1.989.527" transform="translate(-74.755 -91.404)" fill="#263238"/>
        <path id="Path_13430" data-name="Path 13430" d="M182.08,190.551a40.036,40.036,0,0,1-.119-4.514,39.981,39.981,0,0,1,.137-4.514,40.052,40.052,0,0,1,.119,4.515,39.97,39.97,0,0,1-.137,4.514" transform="translate(-92.826 -92.602)" fill="#263238"/>
        <path id="Path_13431" data-name="Path 13431" d="M137.91,161.378c.053-1.093.168-2.328.168-2.328a3.274,3.274,0,0,0,2.867-3.09c.164-2.793,0-9.232,0-9.232l-4.923-2.507-5.416,4.274.821,13.962,4.983.317a1.437,1.437,0,0,0,1.5-1.395" transform="translate(-66.628 -73.573)" fill="#ffbe9d"/>
        <path id="Path_13432" data-name="Path 13432" d="M145.341,162.02c.008,0,.008.052-.043.12a.384.384,0,0,1-.311.137c-.314-.015-.616-.362-.727-.785a1.336,1.336,0,0,1-.014-.621.532.532,0,0,1,.294-.421.263.263,0,0,1,.208,0,.236.236,0,0,1,.111.112c.036.083.008.134,0,.13s-.008-.047-.049-.1a.181.181,0,0,0-.233-.049.44.44,0,0,0-.2.35,1.3,1.3,0,0,0,.023.554c.1.38.361.69.6.718a.353.353,0,0,0,.264-.072c.053-.044.072-.083.082-.078" transform="translate(-73.571 -81.843)" fill="#eb996e"/>
        <path id="Path_13433" data-name="Path 13433" d="M129.308,143.357c-.376-1.286-1.743-1.924-2.988-2.277a9.431,9.431,0,0,0-5.8-.093c-1.851.681-4.076,1.88-4.076,3.925-1.092-.09-1.716.868-2.15,2.053a7.838,7.838,0,0,0-.465,2.253l-.018-.006c-.141,2.676-.886,6.363-2.621,8.342-.958,1.093-2.338,1.848-2.9,3.209-.485,1.183-.234,2.581-.693,3.775a13.68,13.68,0,0,1-1.945,2.72,7.276,7.276,0,0,0-.467,7.049,8.947,8.947,0,0,0,5.332,4.608,12.491,12.491,0,0,0,7.033.066,11.751,11.751,0,0,0,4.711-2.335,7.891,7.891,0,0,0,2.705-4.566c.345-2-.215-4.033-.627-6.02-1.3-6.288-.931-6.615.714-12.447.037-.1.06-.21.088-.315l.065-.231h0a3.635,3.635,0,0,0,.077-.7,1.339,1.339,0,0,1-1.417-.306,1.48,1.48,0,0,1-.335-1.466,2.122,2.122,0,0,1,1.263-1.19c.543-.229,1.128-.342,1.661-.6a5.542,5.542,0,0,0,2.448-2.826,3.863,3.863,0,0,0,.4-2.628" transform="translate(-53.311 -71.71)" fill="#263238"/>
        <path id="Path_13434" data-name="Path 13434" d="M146.028,163.918a2.229,2.229,0,0,1,.258.484c.145.31.341.746.557,1.248l.041.1-.1.009-.5.043c-.342.022-.627.063-.958.059a.174.174,0,0,1-.126-.111.288.288,0,0,1-.008-.136c.015-.077.031-.134.047-.2l.086-.347a3.3,3.3,0,0,1,.206-.678,3.248,3.248,0,0,1-.1.7l-.068.351c-.025.118-.068.3,0,.282.243-.011.591-.051.914-.075l.5-.04-.063.1c-.21-.5-.387-.948-.508-1.268a2.22,2.22,0,0,1-.169-.522" transform="translate(-74.065 -83.621)" fill="#e8505b"/>
        <path id="Path_13435" data-name="Path 13435" d="M111.578,247.427l21.72-.662,9.447,36.9L141.005,326h-11.5l1.425-41.432-8.4-25.691,1.294,68.764-11.606.171L111,263.18c-.05-1.8-.642-5.849-.422-7.631Z" transform="translate(-56.384 -125.885)" fill="#263238"/>
        <path id="Path_13436" data-name="Path 13436" d="M133.537,271.065a4.172,4.172,0,0,1-1.065-.063c-.653-.077-1.552-.215-2.537-.412s-1.867-.419-2.5-.6a4.146,4.146,0,0,1-1.007-.354c.019-.071,1.6.312,3.557.7s3.561.653,3.552.725" transform="translate(-64.496 -137.548)" fill="#455a64"/>
        <path id="Path_13437" data-name="Path 13437" d="M160.427,403.65c0,.071-2.6.128-5.813.128s-5.813-.057-5.813-.128,2.6-.127,5.813-.127,5.813.057,5.813.127" transform="translate(-75.91 -205.854)" fill="#455a64"/>
        <path id="Path_13438" data-name="Path 13438" d="M125.719,408.094c0,.071-2.525.128-5.639.128s-5.639-.057-5.639-.128,2.524-.127,5.639-.127,5.639.057,5.639.127" transform="translate(-58.381 -208.121)" fill="#455a64"/>
        <path id="Path_13439" data-name="Path 13439" d="M133.243,337.967c-.071,0-.376-15.025-.682-33.557s-.5-33.564-.427-33.564.376,15.021.682,33.56.5,33.56.427,33.561" transform="translate(-67.4 -138.17)" fill="#455a64"/>
        <path id="Path_13440" data-name="Path 13440" d="M161.237,324.371a1.2,1.2,0,0,1-.005-.2c0-.145.006-.339.011-.587.015-.53.037-1.287.066-2.256.068-1.972.167-4.8.288-8.294.268-7.013.638-16.68,1.046-27.358,0-.1.008-.2.012-.288l0,.036c-2.574-10.308-4.9-19.625-6.588-26.38l-1.966-7.991c-.224-.934-.4-1.664-.522-2.174l-.129-.567a1.112,1.112,0,0,1-.036-.195,1.173,1.173,0,0,1,.061.189l.154.56c.134.508.324,1.234.568,2.163L156.244,259c1.706,6.75,4.058,16.061,6.661,26.362l0,.018v.019c0,.091-.008.189-.011.288-.437,10.676-.834,20.342-1.121,27.355l-.369,8.29c-.049.968-.087,1.724-.113,2.254-.015.247-.027.442-.036.586a1.155,1.155,0,0,1-.021.2" transform="translate(-78.264 -126.575)" fill="#455a64"/>
        <path id="Path_13441" data-name="Path 13441" d="M156.3,322.426a13.357,13.357,0,0,1-2.54.565c-1.056.182-1.968.306-2.367.329v-.1c.132.036.2.065.2.082s-.079.023-.216.017l-.3-.013.3-.087c.383-.112,1.284-.3,2.341-.48a13.3,13.3,0,0,1,2.583-.315" transform="translate(-77.071 -164.474)" fill="#455a64"/>
        <path id="Path_13442" data-name="Path 13442" d="M156.534,324.881a35.666,35.666,0,0,1-4.562-.355,14.508,14.508,0,0,1,4.562.355" transform="translate(-77.527 -165.521)" fill="#455a64"/>
        <g id="Group_24434" data-name="Group 24434" transform="translate(55.098 120.88)" opacity="0.2">
          <g id="Group_24433" data-name="Group 24433">
            <g id="Group_24432" data-name="Group 24432" clip-path="url(#clip-path-11)">
              <path id="Path_13443" data-name="Path 13443" d="M112.478,248.207a2.982,2.982,0,0,0,2.144,1.141,9.708,9.708,0,0,0,2.634-.049,136.678,136.678,0,0,0,17.038-2.534c-7.107.4-14.613.264-21.72.662,0,0-.061.489-.075.606" transform="translate(-112.478 -246.765)"/>
            </g>
          </g>
        </g>
        <g id="Group_24437" data-name="Group 24437" transform="translate(62.424 132.34)" opacity="0.2">
          <g id="Group_24436" data-name="Group 24436">
            <g id="Group_24435" data-name="Group 24435" clip-path="url(#clip-path-12)">
              <path id="Path_13444" data-name="Path 13444" d="M127.433,270.16l4,15.544-.28-14.889Z" transform="translate(-127.433 -270.16)"/>
            </g>
          </g>
        </g>
      </g>
    </g>
  </g>
</svg>
