<svg id="Group_24476" data-name="Group 24476" xmlns="http://www.w3.org/2000/svg" xmlns:xlink="http://www.w3.org/1999/xlink" width="209.271" height="203.362" viewBox="0 0 209.271 203.362">
  <defs>
    <clipPath id="clip-path">
      <rect id="Rectangle_17797" data-name="Rectangle 17797" width="209.271" height="203.362" fill="none"/>
    </clipPath>
    <clipPath id="clip-path-4">
      <rect id="Rectangle_17784" data-name="Rectangle 17784" width="31.793" height="47.796" fill="#568b22"/>
    </clipPath>
    <clipPath id="clip-path-5">
      <rect id="Rectangle_17785" data-name="Rectangle 17785" width="8.117" height="12.549" fill="none"/>
    </clipPath>
    <clipPath id="clip-path-8">
      <rect id="Rectangle_17789" data-name="Rectangle 17789" width="1.609" height="1.634" fill="none"/>
    </clipPath>
    <clipPath id="clip-path-9">
      <rect id="Rectangle_17790" data-name="Rectangle 17790" width="19.745" height="10.073" fill="none"/>
    </clipPath>
    <clipPath id="clip-path-10">
      <rect id="Rectangle_17791" data-name="Rectangle 17791" width="1.655" height="1.652" fill="none"/>
    </clipPath>
    <clipPath id="clip-path-11">
      <rect id="Rectangle_17792" data-name="Rectangle 17792" width="21.267" height="1.845" fill="none"/>
    </clipPath>
    <clipPath id="clip-path-12">
      <rect id="Rectangle_17793" data-name="Rectangle 17793" width="6.626" height="5.879" fill="none"/>
    </clipPath>
  </defs>
  <g id="Group_24475" data-name="Group 24475" clip-path="url(#clip-path)">
    <g id="Group_24443" data-name="Group 24443">
      <g id="Group_24442" data-name="Group 24442" clip-path="url(#clip-path)">
        <path id="Path_13445" data-name="Path 13445" d="M333.853,322.577a18.654,18.654,0,0,0-7.983-2.748,5.318,5.318,0,0,0-3.776.694.776.776,0,0,0-.389.689.842.842,0,0,0,.369.472,11.414,11.414,0,0,0,11.778.892" transform="translate(-174.534 -173.487)" fill="#e0e0e0"/>
        <path id="Path_13446" data-name="Path 13446" d="M337.759,310.571a38.979,38.979,0,0,1-5.156-4.536,13.046,13.046,0,0,1-3.232-5.978,2.41,2.41,0,0,1,.256-2c4.11,3.21,7.338,7.361,8.133,12.515" transform="translate(-178.644 -161.707)" fill="#e0e0e0"/>
        <path id="Path_13447" data-name="Path 13447" d="M347.864,311.186a18.639,18.639,0,0,1,.1-6.77,9.15,9.15,0,0,1,3.606-5.586,7.991,7.991,0,0,1-.1,5.307,25.787,25.787,0,0,1-3.575,7.527" transform="translate(-188.588 -162.127)" fill="#e0e0e0"/>
        <path id="Path_13448" data-name="Path 13448" d="M345.047,341.619a11.8,11.8,0,0,0-6.4,3.24,12.107,12.107,0,0,0-3.662,6.286c2.4-.148,4.434-1.84,5.91-3.737s2.5-3.979,4.12-5.753" transform="translate(-181.741 -185.341)" fill="#e0e0e0"/>
        <path id="Path_13449" data-name="Path 13449" d="M357.59,326.43a15.789,15.789,0,0,1,1.823-14.935,19.012,19.012,0,0,1-1.823,14.935" transform="translate(-193.409 -168.998)" fill="#e0e0e0"/>
        <path id="Path_13450" data-name="Path 13450" d="M357.388,357.974a11.418,11.418,0,0,0-10.917,6.284c-.135.27-.255.614-.074.856a.812.812,0,0,0,.724.213,9.5,9.5,0,0,0,5.631-2.908,53.983,53.983,0,0,1,4.683-4.452" transform="translate(-187.884 -194.203)" fill="#e0e0e0"/>
        <path id="Path_13451" data-name="Path 13451" d="M369.076,339.305a20.331,20.331,0,0,1-.2-11.358,5.536,5.536,0,0,1,2.424-3.686.476.476,0,0,1,.371-.065.49.49,0,0,1,.235.272,6.846,6.846,0,0,1,.571,3.258,20.428,20.428,0,0,1-.511,3.3c-.426,2.016-.652,4.183-1.758,5.921a12.034,12.034,0,0,0-.7,1.3c-.21.442-.211.6-.4.949" transform="translate(-199.742 -175.879)" fill="#e0e0e0"/>
        <path id="Path_13452" data-name="Path 13452" d="M400.5,347a14.645,14.645,0,0,1,2.566-12.041c.184-.24.429-.5.73-.468.461.043.581.656.56,1.119A21.759,21.759,0,0,1,400.5,347" transform="translate(-217.074 -181.471)" fill="#e0e0e0"/>
        <path id="Path_13453" data-name="Path 13453" d="M403.74,358.8a17.514,17.514,0,0,0,14.372-2.923,11.638,11.638,0,0,0-7.78-.955,11.1,11.1,0,0,0-6.592,3.878" transform="translate(-219.044 -192.402)" fill="#e0e0e0"/>
        <path id="Path_13454" data-name="Path 13454" d="M406.082,349.007a16.61,16.61,0,0,1,13.044-7.542,8.036,8.036,0,0,1-4.266,4.717,23.675,23.675,0,0,1-6.261,1.831,4.416,4.416,0,0,0-2.516.995" transform="translate(-220.315 -185.258)" fill="#e0e0e0"/>
        <path id="Path_13455" data-name="Path 13455" d="M399.327,311.885A37.9,37.9,0,0,0,401,304.246a12.721,12.721,0,0,0-1.522-7.556,16.634,16.634,0,0,0-.223,15.457" transform="translate(-215.634 -160.966)" fill="#e0e0e0"/>
        <path id="Path_13456" data-name="Path 13456" d="M420.125,308.362c2.952-5.365,8.974-9.65,15.067-10.25-2.351,5.852-8.761,10.376-15.067,10.25" transform="translate(-227.934 -161.737)" fill="#e0e0e0"/>
        <path id="Path_13457" data-name="Path 13457" d="M416.066,321.771c4.4.671,8.152,3.482,12.266,5.186a5.493,5.493,0,0,0,2.773.531,2.171,2.171,0,0,0,1.359-3.84,5.933,5.933,0,0,0-2.014-1.222,22.385,22.385,0,0,0-14.005-.781" transform="translate(-225.732 -174.095)" fill="#e0e0e0"/>
        <path id="Path_13458" data-name="Path 13458" d="M410.5,329.312a5.2,5.2,0,0,1,2.126,1.473,22.944,22.944,0,0,0,9.3,4.778c.355.088.822.124,1-.2.154-.28-.041-.62-.241-.87a12.8,12.8,0,0,0-5.616-3.812c-2.147-.8-4.006-1.763-6.569-1.556" transform="translate(-222.711 -178.549)" fill="#e0e0e0"/>
        <path id="Path_13459" data-name="Path 13459" d="M404.214,288.238a17.6,17.6,0,0,0,13.5,4.592.923.923,0,0,0,.614-.221c.34-.37-.068-.94-.463-1.248a15.548,15.548,0,0,0-13.647-3.123" transform="translate(-219.302 -156.122)" fill="#e0e0e0"/>
        <path id="Path_13460" data-name="Path 13460" d="M411.664,281.73a18.809,18.809,0,0,1,16.84-2.779,13.369,13.369,0,0,1-8.025,3.523,25.4,25.4,0,0,1-8.815-.744" transform="translate(-223.344 -150.861)" fill="#e0e0e0"/>
        <path id="Path_13461" data-name="Path 13461" d="M406,253.22c-.39-3.96-.137-7.087-.412-11.066-.022-.318-.09-.7-.387-.815-.414-.16-.759.349-.9.772A12.683,12.683,0,0,0,406,253.132" transform="translate(-219.039 -130.92)" fill="#e0e0e0"/>
        <path id="Path_13462" data-name="Path 13462" d="M408.08,253.536a23.289,23.289,0,0,0,6.56-6.376c1.3-1.773,2.388-3.9,2.093-6.073a6.281,6.281,0,0,0-4.732,2.35,13.212,13.212,0,0,0-2.413,4.854c-.525,1.742-.893,3.533-1.509,5.246" transform="translate(-221.399 -130.798)" fill="#e0e0e0"/>
        <path id="Path_13463" data-name="Path 13463" d="M422.07,252.624a52.887,52.887,0,0,0,16.145-9.52,8.243,8.243,0,0,0-6.065.466,19.124,19.124,0,0,0-10.164,9.011" transform="translate(-228.944 -131.677)" fill="#e0e0e0"/>
        <path id="Path_13464" data-name="Path 13464" d="M412.042,267.5a32.837,32.837,0,0,0,8.965.044,38.073,38.073,0,0,0,8.369-2.781.983.983,0,0,0,.568-.432.654.654,0,0,0-.2-.716,1.736,1.736,0,0,0-.714-.335,15.5,15.5,0,0,0-9.044.541,41.975,41.975,0,0,0-7.941,3.679" transform="translate(-223.549 -142.595)" fill="#e0e0e0"/>
        <path id="Path_13465" data-name="Path 13465" d="M373.07,273.534a15.857,15.857,0,0,1-.145-13.125,10.024,10.024,0,0,1,1.161,6.526c-.226,2.242-.908,4.55-.953,6.8" transform="translate(-201.594 -141.282)" fill="#e0e0e0"/>
        <path id="Path_13466" data-name="Path 13466" d="M340.952,280.139a18.3,18.3,0,0,0-13.6,5.795,12.711,12.711,0,0,0,7.448-1.381,37.857,37.857,0,0,0,6.383-4.272" transform="translate(-177.6 -151.985)" fill="#e0e0e0"/>
        <path id="Path_13467" data-name="Path 13467" d="M329.971,275.866c-2.484-.2-4.873-.509-7.261.223a8.71,8.71,0,0,0-5.534,4.693,13.118,13.118,0,0,0,6.807-1.285,39.173,39.173,0,0,0,5.988-3.63" transform="translate(-172.08 -149.538)" fill="#e0e0e0"/>
        <path id="Path_13468" data-name="Path 13468" d="M345.554,271.811a22.9,22.9,0,0,0-7.13-3.561c-2.6-.606-5.616-.158-7.43,1.8,2.106,1.236,4.661,1.382,7.1,1.38s5.435-.03,7.737.785" transform="translate(-179.577 -145.399)" fill="#e0e0e0"/>
        <path id="Path_13469" data-name="Path 13469" d="M357.709,258.07c-3.82-3.751-5.268-10.489-3.731-15.616a23.792,23.792,0,0,1,3.731,15.616" transform="translate(-191.719 -131.541)" fill="#e0e0e0"/>
        <path id="Path_13470" data-name="Path 13470" d="M385.81,238.743c.72-1.675,1.227-3.432,1.873-5.137a14.769,14.769,0,0,1,2.671-4.736,7.035,7.035,0,0,1,4.731-2.452A19.052,19.052,0,0,1,385.9,238.77" transform="translate(-209.317 -122.841)" fill="#e0e0e0"/>
        <path id="Path_13471" data-name="Path 13471" d="M369.938,250.218c-1.192-1.641-2.57-3.868-4.186-5.093a7,7,0,0,0-5.695-1.5,13.265,13.265,0,0,0,9.881,6.588" transform="translate(-195.345 -132.101)" fill="#e0e0e0"/>
        <path id="Path_13472" data-name="Path 13472" d="M380.089,239.063a28.334,28.334,0,0,1-1.884-6.1,9.518,9.518,0,0,1,.955-6.205c2.1,3.963,2.772,8.218,1.036,12.352" transform="translate(-205.116 -123.024)" fill="#e0e0e0"/>
        <path id="Path_13473" data-name="Path 13473" d="M385.852,216.794c1.188-3.929,4.785-6.822,8.669-8.149a3.24,3.24,0,0,1,1.52-.228,1.32,1.32,0,0,1,1.12.935c.142.669-.41,1.268-.93,1.711a29.5,29.5,0,0,1-10.38,5.731" transform="translate(-209.34 -113.062)" fill="#e0e0e0"/>
        <path id="Path_13474" data-name="Path 13474" d="M385.872,204.07a28.146,28.146,0,0,1,1.133-7.5,9.485,9.485,0,0,1,4.722-5.7c.393,2.559-.736,5.1-2.1,7.306s-3,4.28-3.82,6.736" transform="translate(-209.317 -103.551)" fill="#e0e0e0"/>
        <path id="Path_13475" data-name="Path 13475" d="M377.072,207.209c-.982-2.863-1.083-6.5-2.8-9-1.2-1.744-3.118-2.932-4.151-4.779a7.267,7.267,0,0,0,.242,5.425,15.7,15.7,0,0,0,3.172,4.541c1.269,1.355,2.355,2.375,3.535,3.808" transform="translate(-200.579 -104.946)" fill="#e0e0e0"/>
        <path id="Path_13476" data-name="Path 13476" d="M385.676,306.686c-.076,0-.142-19.1-.148-42.66s.052-42.663.129-42.663.142,19.1.148,42.663-.052,42.66-.129,42.66" transform="translate(-209.164 -120.098)" fill="#e0e0e0"/>
        <path id="Path_13477" data-name="Path 13477" d="M402.516,282.794a4.061,4.061,0,0,1-.718.269l-1.977.667c-1.667.568-3.956,1.39-6.441,2.408-2.46,1.055-4.78,1.912-6.1,3.057a4.484,4.484,0,0,0-1.226,1.622c-.19.448-.224.723-.249.718a.559.559,0,0,1,.008-.2,3.022,3.022,0,0,1,.14-.556,4.309,4.309,0,0,1,1.2-1.729,10.719,10.719,0,0,1,2.648-1.645c1.059-.495,2.233-1.01,3.479-1.522,2.493-1.022,4.8-1.817,6.485-2.339.842-.263,1.53-.456,2.006-.584a4.107,4.107,0,0,1,.749-.167" transform="translate(-209.311 -153.425)" fill="#e0e0e0"/>
        <path id="Path_13478" data-name="Path 13478" d="M409.546,253.418a1.172,1.172,0,0,1-.2.215l-.613.575-2.288,2.079-7.616,6.781c-2.973,2.646-5.542,5.175-7.323,7.079-.892.951-1.594,1.739-2.073,2.289l-.554.632a1.138,1.138,0,0,1-.207.21,1.226,1.226,0,0,1,.164-.244c.116-.154.284-.382.514-.666.455-.572,1.136-1.382,2.011-2.352a96.605,96.605,0,0,1,7.282-7.152c2.984-2.641,5.7-5.012,7.671-6.722l2.346-2.013.647-.537a1.158,1.158,0,0,1,.238-.173" transform="translate(-210.869 -137.489)" fill="#e0e0e0"/>
        <path id="Path_13479" data-name="Path 13479" d="M403.848,272.554c-.078-.035.543-1.469,1.162-3.282s.919-3.344,1-3.331a11.205,11.205,0,0,1-.736,3.419,22.35,22.35,0,0,1-.925,2.3,3.564,3.564,0,0,1-.5.9" transform="translate(-219.1 -144.283)" fill="#e0e0e0"/>
        <path id="Path_13480" data-name="Path 13480" d="M372.759,289.129a3.4,3.4,0,0,1-.458-.532l-1.173-1.5c-.986-1.274-2.349-3.033-3.876-4.958s-2.933-3.652-3.95-4.9l-1.2-1.484a3.44,3.44,0,0,1-.414-.567,3.4,3.4,0,0,1,.5.5c.306.332.739.82,1.267,1.429,1.057,1.218,2.486,2.928,4.016,4.856s2.87,3.707,3.816,5.013c.473.652.85,1.185,1.1,1.558a3.39,3.39,0,0,1,.371.6" transform="translate(-196.229 -149.296)" fill="#e0e0e0"/>
        <path id="Path_13481" data-name="Path 13481" d="M375.637,288.551a6.726,6.726,0,0,1-1.533-2.871,8.2,8.2,0,0,1-.348-2.894l.122.01c-.055.221-.095.338-.117.334s-.023-.127,0-.354l.122.01a13.182,13.182,0,0,0,.49,2.815,21.442,21.442,0,0,0,1.269,2.949" transform="translate(-202.767 -153.417)" fill="#e0e0e0"/>
        <path id="Path_13482" data-name="Path 13482" d="M357.754,281.014a4.943,4.943,0,0,0-1.07-.622,7.16,7.16,0,0,0-2.973-.237,18.352,18.352,0,0,0-2.993.483,9.049,9.049,0,0,1-1.232.3,4.291,4.291,0,0,1,1.179-.484,13.656,13.656,0,0,1,3.025-.57,6.49,6.49,0,0,1,3.066.331,1.9,1.9,0,0,1,1,.8" transform="translate(-189.61 -151.824)" fill="#e0e0e0"/>
        <path id="Path_13483" data-name="Path 13483" d="M351.334,277.175c-.021.043-.624-.25-1.64-.6a16.508,16.508,0,0,0-8.265-.63c-1.058.189-1.7.387-1.712.342a1.544,1.544,0,0,1,.435-.185,10.162,10.162,0,0,1,1.238-.348,14.59,14.59,0,0,1,8.371.638,10.26,10.26,0,0,1,1.172.532,1.562,1.562,0,0,1,.4.249" transform="translate(-184.309 -149.426)" fill="#e0e0e0"/>
        <path id="Path_13484" data-name="Path 13484" d="M383.28,256a67.657,67.657,0,0,1-2.125-8.378A67.728,67.728,0,0,1,383.28,256" transform="translate(-206.787 -134.347)" fill="#e0e0e0"/>
        <path id="Path_13485" data-name="Path 13485" d="M382.089,260.6a20,20,0,0,0-1.326-2.488,10.974,10.974,0,0,0-1.951-2.014,1.826,1.826,0,0,1,.753.388,6.072,6.072,0,0,1,1.424,1.467,5.514,5.514,0,0,1,1.1,2.646" transform="translate(-205.52 -138.94)" fill="#e0e0e0"/>
        <path id="Path_13486" data-name="Path 13486" d="M365.1,352.552c-.03,0-.086-.459-.3-1.27a18.089,18.089,0,0,0-1.276-3.307,45.769,45.769,0,0,0-6.773-9.542c-1.512-1.727-2.979-3.357-4.224-4.917a34.528,34.528,0,0,1-3.021-4.356,20.9,20.9,0,0,1-1.525-3.233c-.14-.4-.243-.71-.3-.925a1.565,1.565,0,0,1-.079-.33c.025-.008.164.437.479,1.216a23.662,23.662,0,0,0,1.593,3.173,36.551,36.551,0,0,0,3.05,4.3c1.25,1.544,2.719,3.165,4.234,4.9a43.4,43.4,0,0,1,6.741,9.638,16.5,16.5,0,0,1,1.2,3.366,9.244,9.244,0,0,1,.169.958,1.548,1.548,0,0,1,.028.338" transform="translate(-188.585 -176.147)" fill="#e0e0e0"/>
        <path id="Path_13487" data-name="Path 13487" d="M400.935,348.372a6.941,6.941,0,0,1-.79.444,17.31,17.31,0,0,0-2.051,1.355,23.591,23.591,0,0,0-2.693,2.456c-.945,1-1.919,2.158-2.913,3.4-1.987,2.493-3.845,4.7-4.958,6.459-.565.873-.976,1.61-1.245,2.126a6.944,6.944,0,0,1-.435.8.752.752,0,0,1,.073-.224c.059-.142.139-.356.265-.619a20.141,20.141,0,0,1,1.176-2.183,71.122,71.122,0,0,1,4.907-6.528c1-1.245,1.981-2.407,2.944-3.4a21.856,21.856,0,0,1,2.76-2.436,14.4,14.4,0,0,1,2.118-1.295c.262-.131.476-.212.617-.273a.761.761,0,0,1,.223-.076" transform="translate(-209.338 -189.004)" fill="#e0e0e0"/>
        <path id="Path_13488" data-name="Path 13488" d="M407.107,360.432a11.476,11.476,0,0,1-1.671.243,22.022,22.022,0,0,0-3.963.78,11.906,11.906,0,0,0-3.549,1.862c-.818.632-1.2,1.155-1.242,1.124a1.281,1.281,0,0,1,.247-.385,6.328,6.328,0,0,1,.871-.891,10.752,10.752,0,0,1,3.587-1.974,17.912,17.912,0,0,1,4.028-.712,9.241,9.241,0,0,1,1.69-.048" transform="translate(-215.215 -195.537)" fill="#e0e0e0"/>
        <path id="Path_13489" data-name="Path 13489" d="M397.743,361.18c-.087-.049.666-1.2,1.25-2.747.549-1.561.677-2.931.775-2.914a2.643,2.643,0,0,1-.028.9,9.614,9.614,0,0,1-.487,2.112,10.187,10.187,0,0,1-.969,1.937,2.689,2.689,0,0,1-.54.715" transform="translate(-215.787 -192.883)" fill="#e0e0e0"/>
        <path id="Path_13490" data-name="Path 13490" d="M405.827,315.935a1.279,1.279,0,0,1-.268.142l-.785.357c-.344.147-.762.334-1.232.582s-1.023.495-1.6.839l-.912.518c-.316.182-.629.4-.961.606-.672.408-1.345.909-2.064,1.422a35.43,35.43,0,0,0-7.948,8.224c-.488.736-.967,1.426-1.351,2.112-.2.339-.4.66-.573.982l-.487.929c-.325.585-.557,1.144-.784,1.624s-.4.9-.54,1.251l-.33.8a.152.152,0,1,1-.053-.019l.282-.817c.12-.356.28-.787.5-1.274s.435-1.056.751-1.651l.474-.942c.167-.327.369-.651.563-1,.378-.7.853-1.395,1.339-2.14a34.108,34.108,0,0,1,8.006-8.285c.728-.511,1.411-1.009,2.093-1.411.338-.205.655-.418.976-.6l.926-.506c.583-.336,1.143-.576,1.624-.807s.9-.409,1.256-.542l.807-.31a1.207,1.207,0,0,1,.288-.091" transform="translate(-209.345 -171.406)" fill="#e0e0e0"/>
        <path id="Path_13491" data-name="Path 13491" d="M403.4,331.057a1.92,1.92,0,0,1,.656-.978,4.142,4.142,0,0,1,2.645-1.015,7.228,7.228,0,0,1,2.783.543,3.973,3.973,0,0,1,1.052.511,6.474,6.474,0,0,1-1.117-.327,8.408,8.408,0,0,0-2.71-.452,4.311,4.311,0,0,0-2.527.887,7.781,7.781,0,0,0-.784.83" transform="translate(-218.861 -178.529)" fill="#e0e0e0"/>
        <path id="Path_13492" data-name="Path 13492" d="M399.5,331.523a7.065,7.065,0,0,0,.583-4.994,1.625,1.625,0,0,1,.31.712,5.051,5.051,0,0,1-.427,3.661c-.233.422-.439.64-.466.621" transform="translate(-216.741 -177.154)" fill="#e0e0e0"/>
        <path id="Path_13493" data-name="Path 13493" d="M357.013,391.6c.412,7.3,2.611,14.724,6,22.23h14.714a63.929,63.929,0,0,0,5.639-22.23Z" transform="translate(-193.693 -212.459)" fill="#e0e0e0"/>
        <path id="Path_13494" data-name="Path 13494" d="M383.731,417.259c0,.076-4.844.138-10.819.138s-10.82-.062-10.82-.138,4.844-.138,10.82-.138,10.819.062,10.819.138" transform="translate(-196.449 -226.304)" fill="#fafafa"/>
        <path id="Path_13495" data-name="Path 13495" d="M384.617,423.039c0,.076-4.542.138-10.143.138s-10.143-.062-10.143-.138,4.541-.138,10.143-.138,10.143.062,10.143.138" transform="translate(-197.664 -229.44)" fill="#fafafa"/>
        <path id="Path_13496" data-name="Path 13496" d="M370.473,402.078a41.629,41.629,0,0,1,0,6.778,41.648,41.648,0,0,1,0-6.778" transform="translate(-200.921 -218.143)" fill="#fafafa"/>
        <path id="Path_13497" data-name="Path 13497" d="M387.706,402.078a44.649,44.649,0,0,1,0,7.019,44.649,44.649,0,0,1,0-7.019" transform="translate(-210.271 -218.143)" fill="#fafafa"/>
        <path id="Path_13498" data-name="Path 13498" d="M403.884,401.948a46.434,46.434,0,0,1,0,7.159,46.455,46.455,0,0,1,0-7.159" transform="translate(-219.048 -218.072)" fill="#fafafa"/>
        <path id="Path_13499" data-name="Path 13499" d="M383.485,401.914c0,.076-5.682.138-12.69.138s-12.691-.062-12.691-.138,5.681-.138,12.691-.138,12.69.062,12.69.138" transform="translate(-194.286 -217.979)" fill="#fafafa"/>
        <rect id="Rectangle_17775" data-name="Rectangle 17775" width="35.254" height="36.749" transform="translate(161.95 0.011)" fill="#e0e0e0"/>
        <rect id="Rectangle_17776" data-name="Rectangle 17776" width="35.254" height="36.749" transform="translate(159.563 0.011)" fill="#fafafa"/>
        <path id="Path_13500" data-name="Path 13500" d="M384.052,36.771H348.776V0h35.276ZM348.8,36.749H384.03V.022H348.8Z" transform="translate(-189.224)" fill="#e0e0e0"/>
        <rect id="Rectangle_17777" data-name="Rectangle 17777" width="25.776" height="26.869" transform="translate(164.302 4.951)" fill="#fff"/>
        <path id="Path_13501" data-name="Path 13501" d="M353.581,69.946a4.223,4.223,0,0,1-.636.739c-.412.435-.99,1.022-1.639,1.661s-1.244,1.208-1.684,1.612a4.118,4.118,0,0,1-.745.62,4.1,4.1,0,0,1,.633-.737c.411-.434.991-1.024,1.642-1.664s1.247-1.211,1.687-1.614a4.017,4.017,0,0,1,.742-.618" transform="translate(-189.279 -37.947)" fill="#e0e0e0"/>
        <path id="Path_13502" data-name="Path 13502" d="M415.5,69.8a4.234,4.234,0,0,1,.74.636c.434.412,1.022.99,1.661,1.639s1.208,1.245,1.612,1.684a4.157,4.157,0,0,1,.621.745,4.083,4.083,0,0,1-.736-.632c-.435-.412-1.024-.992-1.665-1.642s-1.21-1.247-1.614-1.687a4.041,4.041,0,0,1-.618-.742" transform="translate(-225.426 -37.87)" fill="#e0e0e0"/>
        <path id="Path_13503" data-name="Path 13503" d="M415.35,5.484a4.222,4.222,0,0,1,.636-.74c.411-.434.99-1.022,1.638-1.661s1.245-1.208,1.684-1.612a4.09,4.09,0,0,1,.745-.62,4.137,4.137,0,0,1-.633.736c-.412.435-.992,1.024-1.642,1.665s-1.247,1.21-1.687,1.614a4.044,4.044,0,0,1-.742.618" transform="translate(-225.343 -0.461)" fill="#e0e0e0"/>
        <path id="Path_13504" data-name="Path 13504" d="M353.509,5.544a4.233,4.233,0,0,1-.74-.636c-.434-.412-1.022-.99-1.661-1.639S349.9,2.026,349.5,1.586a4.116,4.116,0,0,1-.62-.745,4.07,4.07,0,0,1,.736.632c.435.412,1.024.992,1.665,1.642s1.21,1.247,1.614,1.687a4,4,0,0,1,.618.742" transform="translate(-189.278 -0.456)" fill="#e0e0e0"/>
        <path id="Path_13505" data-name="Path 13505" d="M384.73,37.557a1.255,1.255,0,0,1-.006-.13c0-.092,0-.215-.006-.375,0-.337-.006-.821-.011-1.451-.006-1.273-.015-3.124-.026-5.476-.012-4.706-.03-11.41-.05-19.437l.1.1-25.7.015h0l.114-.114c-.006,9.862-.011,19.088-.016,26.869l-.1-.1,18.612.05,5.228.026,1.383.011.357.005a1.15,1.15,0,0,1,.124.005.819.819,0,0,1-.113.005l-.347.005-1.364.011L377.7,37.6l-18.674.05h-.1v-.1c0-7.781-.01-17.007-.016-26.869v-.114h.117l25.7.015h.1v.1c-.021,8.054-.038,14.779-.051,19.5-.011,2.342-.02,4.186-.026,5.453-.005.621-.009,1.1-.011,1.431,0,.156,0,.275-.006.364a.912.912,0,0,1-.005.119" transform="translate(-194.722 -5.737)" fill="#e0e0e0"/>
        <rect id="Rectangle_17778" data-name="Rectangle 17778" width="8.601" height="8.601" transform="translate(172.889 14.085)" fill="#ebebeb"/>
        <rect id="Rectangle_17779" data-name="Rectangle 17779" width="40.258" height="58.352" transform="translate(3.336 58.071)" fill="#e0e0e0"/>
        <rect id="Rectangle_17780" data-name="Rectangle 17780" width="40.258" height="58.352" transform="translate(1.32 58.071)" fill="#f5f5f5"/>
        <rect id="Rectangle_17781" data-name="Rectangle 17781" width="30.254" height="45.712" transform="translate(6.322 64.39)" fill="#fff"/>
        <path id="Path_13506" data-name="Path 13506" d="M43.943,186.338s0-.077-.006-.224,0-.366-.006-.648c0-.574-.007-1.415-.012-2.507-.006-2.191-.015-5.383-.027-9.416-.012-8.061-.029-19.475-.049-32.917l.1.1-30.251.009h0l.109-.109c-.008,17.244-.016,33.144-.022,45.712l-.087-.087,22.021.046,6.084.022,1.6.01c.361,0,.552.01.552.01s-.178.006-.534.01l-1.581.01-6.065.022-22.075.046H13.6v-.087c-.006-12.568-.014-28.467-.022-45.712v-.109h.113l30.251.009h.1v.1c-.02,13.469-.037,24.906-.049,32.983-.011,4.023-.021,7.208-.027,9.394-.005,1.083-.009,1.917-.012,2.487,0,.277,0,.489-.006.637s-.006.212-.006.212" transform="translate(-7.367 -76.236)" fill="#e0e0e0"/>
        <path id="Path_13507" data-name="Path 13507" d="M84.631,126.94a6.972,6.972,0,0,1-.718,1.043c-.468.625-1.131,1.476-1.889,2.4s-1.465,1.735-1.99,2.313a6.983,6.983,0,0,1-.886.9,7.516,7.516,0,0,1,.768-1.005l1.938-2.351,1.936-2.353a7.526,7.526,0,0,1,.839-.946" transform="translate(-42.941 -68.87)" fill="#e0e0e0"/>
        <path id="Path_13508" data-name="Path 13508" d="M80.29,240.36a37.465,37.465,0,0,0,5.277,6.6" transform="translate(-43.56 -130.405)" fill="#fff"/>
        <path id="Path_13509" data-name="Path 13509" d="M85.565,246.959a6.033,6.033,0,0,1-.92-.837,29.527,29.527,0,0,1-3.743-4.681,6.018,6.018,0,0,1-.614-1.081,8.333,8.333,0,0,1,.742.995c.444.623,1.067,1.475,1.8,2.386s1.422,1.706,1.932,2.276a8.308,8.308,0,0,1,.807.943" transform="translate(-43.558 -130.404)" fill="#e0e0e0"/>
        <path id="Path_13510" data-name="Path 13510" d="M2.872,246.68l5.273-6.506" transform="translate(-1.558 -130.304)" fill="#fff"/>
        <path id="Path_13511" data-name="Path 13511" d="M8.143,240.173a40.122,40.122,0,0,1-2.551,3.322,40.164,40.164,0,0,1-2.722,3.184,40.077,40.077,0,0,1,2.552-3.322,40.035,40.035,0,0,1,2.721-3.184" transform="translate(-1.557 -130.303)" fill="#e0e0e0"/>
        <path id="Path_13512" data-name="Path 13512" d="M2.883,126.94A36.392,36.392,0,0,1,5.443,130a36.5,36.5,0,0,1,2.388,3.2,36.318,36.318,0,0,1-2.56-3.06,36.423,36.423,0,0,1-2.387-3.2" transform="translate(-1.563 -68.869)" fill="#e0e0e0"/>
        <rect id="Rectangle_17782" data-name="Rectangle 17782" width="10.13" height="28.762" transform="translate(17.019 73.672)" fill="#e0e0e0"/>
      </g>
    </g>
    <g id="Group_24451" data-name="Group 24451">
      <g id="Group_24450" data-name="Group 24450" clip-path="url(#clip-path)">
        <path id="Path_13513" data-name="Path 13513" d="M36.707,37.308a16.532,16.532,0,0,0-9.024,21.538L37.932,83.872l4.6-1.882L32.282,56.964a11.544,11.544,0,1,1,21.365-8.749l4.6-1.882a16.531,16.531,0,0,0-21.538-9.024" transform="translate(-14.351 -19.573)" fill="#ff725e"/>
        <g id="Group_24446" data-name="Group 24446" transform="translate(12.101 16.504)">
          <g id="Group_24445" data-name="Group 24445">
            <g id="Group_24444" data-name="Group 24444" clip-path="url(#clip-path-4)">
              <path id="Path_13514" data-name="Path 13514" d="M36.707,37.308a16.532,16.532,0,0,0-9.024,21.538L37.932,83.872l4.6-1.882L32.282,56.964a11.544,11.544,0,1,1,21.365-8.749l4.6-1.882a16.531,16.531,0,0,0-21.538-9.024" transform="translate(-26.452 -36.077)" fill="#568b22"/>
            </g>
          </g>
        </g>
        <path id="Path_13515" data-name="Path 13515" d="M80.473,112.5l-36.266,14.85a2.659,2.659,0,0,1-3.468-1.453l-8.805-21.5a2.658,2.658,0,0,1,1.453-3.467l36.266-14.85A2.658,2.658,0,0,1,73.12,87.53l8.805,21.5a2.658,2.658,0,0,1-1.453,3.467" transform="translate(-17.218 -46.593)" fill="#68a72b"/>
        <g id="Group_24449" data-name="Group 24449" transform="translate(34.582 52.958)" opacity="0.5">
          <g id="Group_24448" data-name="Group 24448">
            <g id="Group_24447" data-name="Group 24447" clip-path="url(#clip-path-5)">
              <path id="Path_13516" data-name="Path 13516" d="M82.758,118.077a3.72,3.72,0,1,0-3.032,5.091l2.108,5.147,1.878-.769L81.6,122.4a3.709,3.709,0,0,0,1.154-4.322" transform="translate(-75.595 -115.766)"/>
            </g>
          </g>
        </g>
        <path id="Path_13517" data-name="Path 13517" d="M46.615,147.95c-.095.039-1.975-4.337-4.2-9.771s-3.954-9.873-3.859-9.912,1.975,4.336,4.2,9.772,3.953,9.872,3.859,9.911" transform="translate(-20.915 -69.59)" fill="#fafafa"/>
        <path id="Path_13518" data-name="Path 13518" d="M76.676,124.5a1.146,1.146,0,0,1-.5-.064,4.543,4.543,0,0,1-1.258-.541,5.213,5.213,0,0,1-1.25-7.941,4.547,4.547,0,0,1,1.03-.9c.276-.169.443-.232.454-.214a11.726,11.726,0,0,0-1.281,1.28,5.157,5.157,0,0,0,1.19,7.557,11.576,11.576,0,0,0,1.613.824" transform="translate(-39.263 -62.302)" fill="#fafafa"/>
        <path id="Path_13519" data-name="Path 13519" d="M16.216,145.053l.223-.649.426.538a2.872,2.872,0,0,0,1.318.932l.649.223-.538.426a2.869,2.869,0,0,0-.932,1.318l-.223.649-.426-.538a2.875,2.875,0,0,0-1.318-.932l-.649-.223.538-.426a2.872,2.872,0,0,0,.932-1.318" transform="translate(-8 -78.345)" fill="#68a72b" opacity="0.61"/>
        <path id="Path_13520" data-name="Path 13520" d="M64.408,89.586l.129-.376.247.312a1.671,1.671,0,0,0,.766.542l.376.129-.312.247a1.669,1.669,0,0,0-.542.765l-.129.376L64.7,91.27a1.668,1.668,0,0,0-.765-.541l-.377-.129.312-.247a1.665,1.665,0,0,0,.542-.765" transform="translate(-34.48 -48.4)" fill="#68a72b" opacity="0.61"/>
        <path id="Path_13521" data-name="Path 13521" d="M5.426,95.688,5.8,94.6l.715.9a4.825,4.825,0,0,0,2.215,1.566l1.09.374-.9.716a4.824,4.824,0,0,0-1.567,2.215l-.374,1.09-.715-.9a4.829,4.829,0,0,0-2.215-1.567l-1.09-.374.9-.716a4.826,4.826,0,0,0,1.567-2.215" transform="translate(-1.604 -51.323)" fill="#68a72b" opacity="0.61"/>
      </g>
    </g>
    <g id="Group_24453" data-name="Group 24453">
      <g id="Group_24452" data-name="Group 24452" clip-path="url(#clip-path)">
        <path id="Path_13522" data-name="Path 13522" d="M186.561,208.293l-67.528-.04a14.709,14.709,0,0,1-14.7-14.712l.033-169.294A14.709,14.709,0,0,1,119.083,9.54l67.528.039a14.71,14.71,0,0,1,14.7,14.713l-.033,169.294a14.709,14.709,0,0,1-14.718,14.706" transform="translate(-56.604 -5.176)" fill="#263238"/>
        <path id="Path_13523" data-name="Path 13523" d="M191.846,22.669l-13.093-.008a3.252,3.252,0,0,0-3.179,3.322v2.375a3.252,3.252,0,0,1-3.18,3.322l-25.52-.015a3.256,3.256,0,0,1-3.179-3.325V25.964a3.256,3.256,0,0,0-3.179-3.325l-4.6,0-11.459-.007a10.3,10.3,0,0,0-10.308,10.3l-.032,165.243a10.3,10.3,0,0,0,10.3,10.3l67.393.039a10.3,10.3,0,0,0,10.308-10.3l.032-165.243a10.3,10.3,0,0,0-10.3-10.3" transform="translate(-61.911 -12.277)" fill="#fff"/>
        <path id="Path_13524" data-name="Path 13524" d="M193.578,399.845a1.294,1.294,0,1,1-1.3-1.283,1.294,1.294,0,0,1,1.3,1.283" transform="translate(-103.62 -216.235)" fill="#263238"/>
        <path id="Path_13525" data-name="Path 13525" d="M209.423,399.714a1.294,1.294,0,1,1-1.3-1.283,1.294,1.294,0,0,1,1.3,1.283" transform="translate(-112.216 -216.164)" fill="#263238"/>
        <path id="Path_13526" data-name="Path 13526" d="M225.269,399.583a1.294,1.294,0,1,1-1.3-1.283,1.293,1.293,0,0,1,1.3,1.283" transform="translate(-120.814 -216.093)" fill="#263238"/>
        <path id="Path_13527" data-name="Path 13527" d="M275.875,59.135c0,.039-1.7.086-3.8.1s-3.8,0-3.8-.04,1.7-.085,3.8-.1,3.8,0,3.8.04" transform="translate(-145.546 -32.058)" fill="#263238"/>
        <path id="Path_13528" data-name="Path 13528" d="M275.91,63.389c0,.039-1.7.086-3.8.1s-3.8,0-3.8-.04,1.7-.086,3.8-.1,3.8,0,3.8.04" transform="translate(-145.565 -34.366)" fill="#263238"/>
        <path id="Path_13529" data-name="Path 13529" d="M275.945,67.643c0,.039-1.7.086-3.8.1s-3.8,0-3.8-.04,1.7-.085,3.8-.1,3.8,0,3.8.04" transform="translate(-145.584 -36.674)" fill="#263238"/>
        <path id="Path_13530" data-name="Path 13530" d="M133.58,65.013a1.4,1.4,0,0,1,.157-.01l.439-.013,1.625-.036-.04.041c-.005-.36-.011-.753-.018-1.178,0-.218-.018-.426,0-.677a.617.617,0,0,1,.539-.495c.26-.005.493-.017.774,0a.623.623,0,0,1,.526.62c.006.549.012,1.123.019,1.718l-.067-.066,2.049-.021-.069.071c-.007-.825-.015-1.678-.023-2.553q0-.327-.005-.651a.514.514,0,0,0-.083-.268,1.611,1.611,0,0,0-.207-.222l-.9-.883-.864-.852-.419-.414a.98.98,0,0,0-.427-.318.558.558,0,0,0-.477.091c-.126.106-.257.254-.382.376l-.735.742c-.462.481-.943.919-1.294,1.336a1.458,1.458,0,0,0-.1.769q0,.382,0,.722c0,.445,0,.833-.005,1.163,0,.3-.005.547-.007.743,0,.171-.009.267-.009.267s-.007-.081-.013-.247c-.005-.194-.011-.436-.019-.733q-.011-.5-.025-1.172-.006-.347-.013-.735c0-.131,0-.265-.006-.4a.837.837,0,0,1,.113-.425c.377-.462.831-.875,1.3-1.368l.73-.747c.131-.129.24-.258.395-.391a.688.688,0,0,1,.587-.115,1.1,1.1,0,0,1,.488.35l.42.412.866.85.9.881a1.666,1.666,0,0,1,.227.247.661.661,0,0,1,.106.341q0,.325.006.653c.006.874.013,1.728.02,2.553v.07h-.07l-2.049.013h-.067v-.066c0-.6-.006-1.169-.01-1.718a.5.5,0,0,0-.42-.5c-.238-.012-.513,0-.745,0a.509.509,0,0,0-.447.4c-.02.208,0,.446-.008.656,0,.425,0,.819,0,1.178v.041h-.04l-1.65-.009-.43-.006a.875.875,0,0,1-.143-.007" transform="translate(-72.432 -31.822)" fill="#263238"/>
        <path id="Path_13531" data-name="Path 13531" d="M164.171,155.256c0,1.586-1.189,2.571-3.09,2.571h-1.433v1.962H158v-7.114h3.08c1.9,0,3.09.986,3.09,2.581m-1.667,0c0-.783-.508-1.24-1.515-1.24h-1.341v2.47h1.341c1.006,0,1.515-.457,1.515-1.23" transform="translate(-85.722 -82.832)" fill="#263238"/>
        <path id="Path_13532" data-name="Path 13532" d="M178.1,158.526v3.12H176.62v-.681a1.794,1.794,0,0,1-1.667.763c-1.281,0-2.043-.712-2.043-1.657,0-.965.681-1.636,2.348-1.636h1.26c0-.681-.407-1.077-1.26-1.077a2.63,2.63,0,0,0-1.575.508l-.569-1.108a4.2,4.2,0,0,1,2.358-.661c1.667,0,2.633.772,2.633,2.429m-1.586,1.393v-.559h-1.087c-.742,0-.976.274-.976.64,0,.4.335.661.894.661a1.168,1.168,0,0,0,1.169-.742" transform="translate(-93.81 -84.689)" fill="#263238"/>
        <path id="Path_13533" data-name="Path 13533" d="M186.241,161.137l.528-1.138a3.746,3.746,0,0,0,1.9.528c.731,0,1.006-.193,1.006-.5,0-.894-3.3.021-3.3-2.165,0-1.037.935-1.769,2.531-1.769a4.494,4.494,0,0,1,2.1.478l-.528,1.128a3.14,3.14,0,0,0-1.575-.407c-.711,0-1.016.224-1.016.508,0,.935,3.3.03,3.3,2.185,0,1.016-.945,1.738-2.581,1.738a4.7,4.7,0,0,1-2.368-.59" transform="translate(-101.043 -84.688)" fill="#263238"/>
        <path id="Path_13534" data-name="Path 13534" d="M198.039,161.137l.528-1.138a3.746,3.746,0,0,0,1.9.528c.731,0,1.006-.193,1.006-.5,0-.894-3.3.021-3.3-2.165,0-1.037.935-1.769,2.53-1.769a4.494,4.494,0,0,1,2.1.478l-.528,1.128a3.14,3.14,0,0,0-1.576-.407c-.711,0-1.016.224-1.016.508,0,.935,3.3.03,3.3,2.185,0,1.016-.945,1.738-2.581,1.738a4.694,4.694,0,0,1-2.368-.59" transform="translate(-107.444 -84.688)" fill="#263238"/>
        <path id="Path_13535" data-name="Path 13535" d="M218.695,156.274l-1.981,5.468h-1.525l-1.23-3.395-1.27,3.395h-1.525l-1.972-5.468h1.494l1.29,3.7,1.342-3.7h1.341l1.3,3.7,1.331-3.7Z" transform="translate(-113.495 -84.785)" fill="#263238"/>
        <path id="Path_13536" data-name="Path 13536" d="M230.366,158.912a3.01,3.01,0,1,1,3.008,2.815,2.815,2.815,0,0,1-3.008-2.815m4.4,0a1.4,1.4,0,1,0-1.393,1.514,1.38,1.38,0,0,0,1.393-1.514" transform="translate(-124.982 -84.689)" fill="#263238"/>
        <path id="Path_13537" data-name="Path 13537" d="M249.2,156.1v1.463c-.132-.01-.234-.02-.355-.02a1.343,1.343,0,0,0-1.453,1.524v2.581h-1.586v-5.468h1.515v.721a2.205,2.205,0,0,1,1.88-.8" transform="translate(-133.36 -84.689)" fill="#263238"/>
        <path id="Path_13538" data-name="Path 13538" d="M260.295,151.742v7.541h-1.514v-.63a2.1,2.1,0,0,1-1.707.711,2.816,2.816,0,0,1,0-5.63,2.1,2.1,0,0,1,1.636.661v-2.653Zm-1.555,4.807a1.4,1.4,0,1,0-1.393,1.514,1.386,1.386,0,0,0,1.393-1.514" transform="translate(-137.989 -82.326)" fill="#263238"/>
        <path id="Path_13539" data-name="Path 13539" d="M204.308,180.942c0,.066-16.939.119-37.83.119s-37.834-.054-37.834-.119,16.936-.119,37.834-.119,37.83.053,37.83.119" transform="translate(-69.794 -98.103)" fill="#e0e0e0"/>
        <path id="Path_13540" data-name="Path 13540" d="M200.433,333.207c0,.066-16.939.119-37.83.119s-37.833-.053-37.833-.119,16.936-.119,37.833-.119,37.83.053,37.83.119" transform="translate(-67.692 -180.713)" fill="#e0e0e0"/>
        <path id="Path_13541" data-name="Path 13541" d="M202.909,344.64c0,.066-9.41.119-21.015.119s-21.016-.053-21.016-.119,9.408-.119,21.016-.119,21.015.053,21.015.119" transform="translate(-87.282 -186.916)" fill="#e0e0e0"/>
        <path id="Path_13542" data-name="Path 13542" d="M138.856,222.323l1.433.776-.644,1.079-1.447-.855.026,1.591h-1.236l.013-1.6-1.447.868-.631-1.079,1.434-.776-1.434-.789.631-1.078,1.447.868-.013-1.6h1.236l-.026,1.6,1.447-.868.644,1.078Z" transform="translate(-73.201 -119.206)" fill="#568b22"/>
        <path id="Path_13543" data-name="Path 13543" d="M174.772,222.323l1.433.776-.644,1.079-1.446-.855.026,1.591H172.9l.013-1.6-1.447.868-.631-1.079,1.434-.776-1.434-.789.631-1.078,1.447.868-.013-1.6h1.236l-.026,1.6,1.446-.868.644,1.078Z" transform="translate(-92.687 -119.206)" fill="#568b22"/>
        <path id="Path_13544" data-name="Path 13544" d="M209.737,222.323l1.433.776-.644,1.079-1.446-.855.026,1.591h-1.236l.013-1.6-1.447.868L205.8,223.1l1.433-.776-1.433-.789.631-1.078,1.447.868-.013-1.6H209.1l-.026,1.6,1.446-.868.644,1.078Z" transform="translate(-111.657 -119.206)" fill="#568b22"/>
        <path id="Path_13545" data-name="Path 13545" d="M243.605,222.323l1.433.776-.644,1.079-1.447-.855.026,1.591h-1.236l.013-1.6-1.447.868-.631-1.079,1.433-.776-1.433-.789.631-1.078,1.447.868-.013-1.6h1.236l-.026,1.6,1.447-.868.644,1.078Z" transform="translate(-130.032 -119.206)" fill="#568b22"/>
        <path id="Path_13546" data-name="Path 13546" d="M277.211,222.323l1.433.776L278,224.178l-1.447-.855.026,1.591h-1.236l.013-1.6-1.447.868-.631-1.079,1.433-.776-1.433-.789.631-1.078,1.447.868-.013-1.6h1.236l-.026,1.6,1.447-.868.644,1.078Z" transform="translate(-148.264 -119.206)" fill="#568b22"/>
        <path id="Path_13547" data-name="Path 13547" d="M137.038,224.93H130.1a3.236,3.236,0,0,1-3.232-3.232V209.392a3.236,3.236,0,0,1,3.232-3.232h6.934a3.236,3.236,0,0,1,3.233,3.232V221.7a3.236,3.236,0,0,1-3.233,3.232M130.1,206.389a3.007,3.007,0,0,0-3,3V221.7a3.007,3.007,0,0,0,3,3h6.934a3.007,3.007,0,0,0,3-3V209.392a3.008,3.008,0,0,0-3-3Z" transform="translate(-68.832 -111.85)" fill="#263238"/>
        <path id="Path_13548" data-name="Path 13548" d="M172.228,224.93h-6.934a3.236,3.236,0,0,1-3.232-3.232V209.392a3.236,3.236,0,0,1,3.232-3.232h6.934a3.236,3.236,0,0,1,3.233,3.232V221.7a3.236,3.236,0,0,1-3.233,3.232m-6.934-18.541a3.007,3.007,0,0,0-3,3V221.7a3.007,3.007,0,0,0,3,3h6.934a3.007,3.007,0,0,0,3-3V209.392a3.008,3.008,0,0,0-3-3Z" transform="translate(-87.924 -111.85)" fill="#263238"/>
        <path id="Path_13549" data-name="Path 13549" d="M206.45,224.93h-6.934a3.236,3.236,0,0,1-3.233-3.232V209.392a3.236,3.236,0,0,1,3.233-3.232h6.934a3.236,3.236,0,0,1,3.233,3.232V221.7a3.236,3.236,0,0,1-3.233,3.232m-6.934-18.541a3.007,3.007,0,0,0-3,3V221.7a3.007,3.007,0,0,0,3,3h6.934a3.007,3.007,0,0,0,3-3V209.392a3.008,3.008,0,0,0-3-3Z" transform="translate(-106.491 -111.85)" fill="#263238"/>
        <path id="Path_13550" data-name="Path 13550" d="M241.061,224.93h-6.934a3.236,3.236,0,0,1-3.232-3.232V209.392a3.236,3.236,0,0,1,3.232-3.232h6.934a3.236,3.236,0,0,1,3.233,3.232V221.7a3.236,3.236,0,0,1-3.233,3.232m-6.934-18.541a3.007,3.007,0,0,0-3,3V221.7a3.007,3.007,0,0,0,3,3h6.934a3.007,3.007,0,0,0,3-3V209.392a3.007,3.007,0,0,0-3-3Z" transform="translate(-125.269 -111.85)" fill="#263238"/>
        <path id="Path_13551" data-name="Path 13551" d="M274.667,224.93h-6.934A3.236,3.236,0,0,1,264.5,221.7V209.392a3.236,3.236,0,0,1,3.232-3.232h6.934a3.236,3.236,0,0,1,3.233,3.232V221.7a3.236,3.236,0,0,1-3.233,3.232m-6.934-18.541a3.007,3.007,0,0,0-3,3V221.7a3.007,3.007,0,0,0,3,3h6.934a3.007,3.007,0,0,0,3-3V209.392a3.008,3.008,0,0,0-3-3Z" transform="translate(-143.501 -111.85)" fill="#263238"/>
        <path id="Path_13552" data-name="Path 13552" d="M199.613,293.276H132.27a5.165,5.165,0,0,1-5.164-5.165v-3.275a5.165,5.165,0,0,1,5.164-5.165h67.342a5.165,5.165,0,0,1,5.165,5.165v3.275a5.165,5.165,0,0,1-5.165,5.165" transform="translate(-68.96 -151.733)" fill="#68a72b"/>
        <path id="Path_13553" data-name="Path 13553" d="M190.57,288.566h2.091a2.312,2.312,0,1,1,0,4.6H190.57Zm2.038,3.728a1.429,1.429,0,1,0,0-2.854h-.973v2.854Z" transform="translate(-103.392 -156.558)" fill="#fff"/>
        <path id="Path_13554" data-name="Path 13554" d="M201.713,292.6a1.947,1.947,0,1,1,1.947,1.821,1.821,1.821,0,0,1-1.947-1.821m2.847,0a.907.907,0,1,0-.9.98.893.893,0,0,0,.9-.98" transform="translate(-109.437 -157.759)" fill="#fff"/>
        <path id="Path_13555" data-name="Path 13555" d="M215.323,292.344v2.025H214.3V292.5c0-.572-.263-.835-.717-.835-.493,0-.848.3-.848.953v1.749h-1.026v-3.538h.979v.415a1.548,1.548,0,0,1,1.171-.467,1.387,1.387,0,0,1,1.466,1.565" transform="translate(-114.859 -157.759)" fill="#fff"/>
        <path id="Path_13556" data-name="Path 13556" d="M224.862,292.89h-2.676a.944.944,0,0,0,1.013.71,1.2,1.2,0,0,0,.887-.342l.545.592a2.065,2.065,0,0,1-3.478-1.249,1.8,1.8,0,0,1,1.887-1.822,1.751,1.751,0,0,1,1.841,1.834c0,.079-.013.191-.02.276m-2.689-.6h1.742a.884.884,0,0,0-1.742,0" transform="translate(-119.985 -157.759)" fill="#fff"/>
        <path id="Path_13557" data-name="Path 13557" d="M207.774,91.327a13.746,13.746,0,1,1-13.746-13.746,13.746,13.746,0,0,1,13.746,13.746" transform="translate(-97.81 -42.091)" fill="#68a72b"/>
        <path id="Path_13558" data-name="Path 13558" d="M204.77,97.464h-.229V96.18a2.681,2.681,0,0,1,5.363,0v1.046h-.229V96.18a2.453,2.453,0,0,0-4.905,0Z" transform="translate(-110.971 -50.727)" fill="#fff"/>
        <path id="Path_13559" data-name="Path 13559" d="M208.355,110.994h-6.817a1.132,1.132,0,0,1-1.131-1.131v-6.817a1.132,1.132,0,0,1,1.131-1.13h6.817a1.132,1.132,0,0,1,1.131,1.13v6.817a1.132,1.132,0,0,1-1.131,1.131m-6.817-8.85a.9.9,0,0,0-.9.9v6.817a.9.9,0,0,0,.9.9h6.817a.9.9,0,0,0,.9-.9v-6.817a.9.9,0,0,0-.9-.9Z" transform="translate(-108.729 -55.293)" fill="#fff"/>
        <path id="Path_13560" data-name="Path 13560" d="M209.133,109.789a1.07,1.07,0,1,1,1.07-1.07,1.071,1.071,0,0,1-1.07,1.07m0-1.911a.841.841,0,1,0,.841.841.842.842,0,0,0-.841-.841" transform="translate(-112.882 -58.404)" fill="#fff"/>
        <rect id="Rectangle_17787" data-name="Rectangle 17787" width="0.229" height="1.931" transform="translate(96.104 51.222)" fill="#fff"/>
      </g>
    </g>
    <path id="Path_13561" data-name="Path 13561" d="M397.348,399.266l-8.634-19.914-9.9,6.358,10.5,18.2,5.266-2.361Z" transform="translate(-205.519 -205.813)" fill="#ffbe9d"/>
    <g id="Group_24470" data-name="Group 24470">
      <g id="Group_24469" data-name="Group 24469" clip-path="url(#clip-path)">
        <path id="Path_13562" data-name="Path 13562" d="M408.073,420.457l.287.564s11.506-.981,12.523.783l-19.048,9.48-2.9-6.468a12.173,12.173,0,0,0,9.135-4.36" transform="translate(-216.439 -228.114)" fill="#68a72b"/>
        <g id="Group_24456" data-name="Group 24456" transform="translate(185.164 197.575)" opacity="0.6">
          <g id="Group_24455" data-name="Group 24455">
            <g id="Group_24454" data-name="Group 24454" clip-path="url(#clip-path-8)">
              <path id="Path_13563" data-name="Path 13563" d="M405.036,432.089a.869.869,0,0,0-.1,1.156.836.836,0,0,0,1.145.105.917.917,0,0,0,.1-1.224.867.867,0,0,0-1.2.022" transform="translate(-404.764 -431.894)" fill="#fff"/>
            </g>
          </g>
        </g>
        <g id="Group_24459" data-name="Group 24459" transform="translate(184.698 193.097)" opacity="0.6">
          <g id="Group_24458" data-name="Group 24458">
            <g id="Group_24457" data-name="Group 24457" clip-path="url(#clip-path-9)">
              <path id="Path_13564" data-name="Path 13564" d="M404.442,432.178l-.7-1.555,18.512-8.517s1.032-.053,1.233.592Z" transform="translate(-403.746 -422.105)" fill="#fff"/>
            </g>
          </g>
        </g>
        <path id="Path_13565" data-name="Path 13565" d="M418.224,421.7c.043.095-.4.368-.71.9s-.358,1.039-.462,1.044c-.095.025-.233-.6.152-1.232s1-.8,1.019-.708" transform="translate(-226.211 -228.777)" fill="#263238"/>
        <path id="Path_13566" data-name="Path 13566" d="M424.085,421.348c.066.08-.258.438-.378.989-.136.547,0,1.012-.1,1.054-.08.058-.415-.455-.253-1.136s.684-.995.73-.907" transform="translate(-229.663 -228.589)" fill="#263238"/>
        <path id="Path_13567" data-name="Path 13567" d="M429.55,423.032c-.075.062-.436-.338-.45-.967s.32-1.048.4-.989-.056.464-.036.98.177.921.089.976" transform="translate(-232.803 -228.447)" fill="#263238"/>
        <path id="Path_13568" data-name="Path 13568" d="M370.424,404.7l.33-21.7-11.643,1.716,2.079,20.914,5.771.016Z" transform="translate(-194.831 -207.791)" fill="#ffbe9d"/>
        <path id="Path_13569" data-name="Path 13569" d="M372.422,428.052l.029.631s10.889,3.843,11.09,5.869l-21.262.8.023-7.086a12.172,12.172,0,0,0,10.119-.213" transform="translate(-196.55 -232.235)" fill="#68a72b"/>
        <g id="Group_24462" data-name="Group 24462" transform="translate(167.402 198.168)" opacity="0.6">
          <g id="Group_24461" data-name="Group 24461">
            <g id="Group_24460" data-name="Group 24460" clip-path="url(#clip-path-10)">
              <path id="Path_13570" data-name="Path 13570" d="M366.524,433.234a.869.869,0,0,0-.563,1.013.835.835,0,0,0,1,.567.916.916,0,0,0,.591-1.076.866.866,0,0,0-1.1-.474" transform="translate(-365.936 -433.19)" fill="#fff"/>
            </g>
          </g>
        </g>
        <g id="Group_24465" data-name="Group 24465" transform="translate(165.729 201.271)" opacity="0.6">
          <g id="Group_24464" data-name="Group 24464">
            <g id="Group_24463" data-name="Group 24463" clip-path="url(#clip-path-11)">
              <path id="Path_13571" data-name="Path 13571" d="M362.279,441.817l.005-1.7,20.377-.141s.962.376.88,1.047Z" transform="translate(-362.279 -439.972)" fill="#fff"/>
            </g>
          </g>
        </g>
        <path id="Path_13572" data-name="Path 13572" d="M382.436,429.456c0,.1-.517.171-1.015.524s-.754.8-.851.762c-.1-.017.035-.643.645-1.06s1.24-.322,1.221-.226" transform="translate(-206.458 -232.951)" fill="#263238"/>
        <path id="Path_13573" data-name="Path 13573" d="M388.023,431.344c.027.1-.415.293-.752.746s-.42.92-.524.92c-.1.02-.192-.586.237-1.14s1.033-.624,1.038-.526" transform="translate(-209.781 -234)" fill="#263238"/>
        <path id="Path_13574" data-name="Path 13574" d="M392.455,434.96c-.094.026-.258-.488-.012-1.066s.722-.823.77-.738-.242.4-.436.878-.218.912-.321.926" transform="translate(-212.845 -234.994)" fill="#263238"/>
        <path id="Path_13575" data-name="Path 13575" d="M341.288,216.733l-.433-17.088-16.634.875-.541,2.022a91.489,91.489,0,0,0-2.177,9.514,40.184,40.184,0,0,0,1.822,21.324c2.806,7.65,7.217,22.205,7.217,22.205l16.5,45.577,19.215-6.317Z" transform="translate(-174.073 -108.315)" fill="#263238"/>
        <path id="Path_13576" data-name="Path 13576" d="M369.034,198.437l1.453,4.731c2.131,1.355,5.574,8.1,5.891,10.853a156.942,156.942,0,0,1,.287,23.234c-.532,9.089-5.034,62.295-5.034,62.295l-18.18.957,1.894-86.03.8-15.361Z" transform="translate(-191.76 -107.66)" fill="#263238"/>
        <path id="Path_13577" data-name="Path 13577" d="M319.425,222.168a2.762,2.762,0,0,0,.629.187,10.325,10.325,0,0,0,1.773.239,11.551,11.551,0,0,0,10.167-5.039,10.335,10.335,0,0,0,.883-1.555,2.789,2.789,0,0,0,.232-.613c-.047-.023-.387.854-1.263,2.065a11.9,11.9,0,0,1-10.013,4.963,24.175,24.175,0,0,1-2.408-.246" transform="translate(-173.3 -116.855)" fill="#455a64"/>
        <path id="Path_13578" data-name="Path 13578" d="M386,210.238a1.262,1.262,0,0,0,.1.395,9.041,9.041,0,0,0,.42,1.028,13.23,13.23,0,0,0,4.8,5.441,9.125,9.125,0,0,0,.967.546,1.27,1.27,0,0,0,.379.152c.02-.038-.487-.315-1.245-.848a15.238,15.238,0,0,1-4.736-5.373c-.434-.819-.645-1.357-.685-1.342" transform="translate(-209.415 -114.062)" fill="#455a64"/>
        <path id="Path_13579" data-name="Path 13579" d="M354.9,241.988s.045.119.122.354l.335,1.047,1.264,4.033,4.6,14.845c3.946,12.516,8.953,29.949,15.669,48.817l2.287,6.694.04.117-.117.038-19.217,6.309-.1.034-.038-.1L348.7,293.537l-3.145-8.779-.827-2.337-.209-.6c-.046-.136-.065-.207-.065-.207s.031.067.083.2l.226.6.861,2.325,3.2,8.757c2.732,7.513,6.595,18.137,11.129,30.606l-.142-.069,19.212-6.325-.077.155-2.289-6.7c-6.716-18.872-11.7-36.314-15.6-48.843-1.911-6.273-3.458-11.351-4.53-14.868-.528-1.753-.939-3.114-1.22-4.046L355,242.349c-.069-.238-.1-.361-.1-.361" transform="translate(-186.88 -131.288)" fill="#455a64"/>
        <path id="Path_13580" data-name="Path 13580" d="M349.261,117.605s-.87-4.867-3.361-7.192-12.882-4.963-12.882-4.963.123,3.606-2.2,4.574a5.856,5.856,0,0,1-6.876-1.356,9.952,9.952,0,0,1-2.367-4.522s-12.314,1.8-14.068,5.135-3.583,16.007-3.583,16.007l11.158,1.761-.364,21.676,29.322-1.543L342.4,126.944l8.043.72Z" transform="translate(-164.891 -56.503)" fill="#455a64"/>
        <path id="Path_13581" data-name="Path 13581" d="M332.089,140.86a1.83,1.83,0,0,0,.014-.489c-.008-.314-.027-.768-.057-1.328-.06-1.119-.158-2.665-.284-4.371s-.253-3.25-.358-4.367c-.053-.558-.1-1.01-.138-1.322a1.832,1.832,0,0,0-.085-.483,1.818,1.818,0,0,0-.014.488c.008.313.027.767.057,1.327.059,1.12.158,2.666.284,4.373s.253,3.251.358,4.368c.053.559.1,1.01.138,1.322a1.812,1.812,0,0,0,.085.482" transform="translate(-179.669 -69.716)" fill="#263238"/>
        <path id="Path_13582" data-name="Path 13582" d="M390.129,132.885c-.069-.016-.642,2.21-1.28,4.972s-1.1,5.014-1.032,5.03.642-2.21,1.28-4.973,1.1-5.014,1.033-5.03" transform="translate(-210.401 -72.095)" fill="#263238"/>
        <path id="Path_13583" data-name="Path 13583" d="M314.364,113.518c-.006.046.531.115,1.352.379a9.6,9.6,0,0,1,5.192,4.056c.455.734.652,1.238.695,1.221a1.1,1.1,0,0,0-.1-.368,6.1,6.1,0,0,0-.437-.944,8.764,8.764,0,0,0-5.3-4.137,6.09,6.09,0,0,0-1.022-.2,1.108,1.108,0,0,0-.382-.011" transform="translate(-170.555 -61.582)" fill="#263238"/>
        <path id="Path_13584" data-name="Path 13584" d="M395.413,119.988a10.167,10.167,0,0,0-.626,3.146,10.167,10.167,0,0,0,.626-3.146" transform="translate(-214.175 -65.098)" fill="#263238"/>
        <path id="Path_13585" data-name="Path 13585" d="M308.264,151.046s4.189,16.61,4.642,18.026,1.268,5.25,5.313,5.839c5.46.8,26.641-1.075,26.641-1.075l-4.27-4.856L321.75,164.75l-3.18-12.078Z" transform="translate(-167.245 -81.948)" fill="#ffbe9d"/>
        <path id="Path_13586" data-name="Path 13586" d="M379.015,184.015a1.187,1.187,0,0,0-.138.4,5.527,5.527,0,0,0-.154,1.13,6.462,6.462,0,0,0,.951,3.616,7.55,7.55,0,0,0,1.3,1.619,4.065,4.065,0,0,0,1.467.869,3.967,3.967,0,0,0,1.129.193,1.242,1.242,0,0,0,.418-.036,8.557,8.557,0,0,1-1.487-.327,4.131,4.131,0,0,1-1.368-.872,7.912,7.912,0,0,1-1.246-1.581,6.764,6.764,0,0,1-.987-3.479c-.007-.944.158-1.519.112-1.528" transform="translate(-205.468 -99.835)" fill="#eb996e"/>
        <path id="Path_13587" data-name="Path 13587" d="M317.965,144.139a2.027,2.027,0,0,1-.5-.048l-1.354-.2c-1.143-.165-2.727-.352-4.479-.579a44.5,44.5,0,0,1-4.459-.775c-.564-.135-1.017-.258-1.325-.36a2.017,2.017,0,0,1-.473-.177c.011-.038.7.142,1.834.367s2.706.475,4.455.7,3.334.441,4.474.65c.57.1,1.029.2,1.344.275a2,2,0,0,1,.484.142" transform="translate(-165.677 -77.039)" fill="#ff725e"/>
        <path id="Path_13588" data-name="Path 13588" d="M318.072,132.966a1.5,1.5,0,0,1-.434.024c-.279,0-.682-.012-1.179-.037-.995-.048-2.367-.157-3.875-.344s-2.866-.421-3.841-.619c-.488-.1-.881-.186-1.151-.254a1.473,1.473,0,0,1-.415-.13,12.04,12.04,0,0,1,1.6.215c.982.153,2.338.358,3.841.547s2.868.322,3.857.414a12.024,12.024,0,0,1,1.6.185" transform="translate(-166.655 -71.397)" fill="#ff725e"/>
        <path id="Path_13589" data-name="Path 13589" d="M318.618,123.448a5.862,5.862,0,0,1-1.3-.011,27.2,27.2,0,0,1-6.174-1.159,5.927,5.927,0,0,1-1.219-.463,8.3,8.3,0,0,1,1.266.3c.776.2,1.851.459,3.051.685s2.3.374,3.091.468a8.341,8.341,0,0,1,1.288.183" transform="translate(-168.144 -66.087)" fill="#ff725e"/>
        <path id="Path_13590" data-name="Path 13590" d="M333.9,112.273a8.951,8.951,0,0,1-1.47.437c-.917.235-2.191.53-3.607.814s-2.707.5-3.643.636a8.92,8.92,0,0,1-1.525.161,10.2,10.2,0,0,1,1.5-.332l3.624-.7,3.616-.743a10.273,10.273,0,0,1,1.509-.269" transform="translate(-175.594 -60.909)" fill="#ff725e"/>
        <path id="Path_13591" data-name="Path 13591" d="M380.149,117a2.457,2.457,0,0,1-.525-.183l-1.4-.575c-1.178-.489-2.806-1.158-4.617-1.866s-3.463-1.318-4.66-1.757l-1.416-.525a2.482,2.482,0,0,1-.51-.22,2.421,2.421,0,0,1,.54.13c.343.1.836.253,1.443.452,1.213.4,2.877.984,4.692,1.693s3.436,1.405,4.6,1.935c.58.264,1.048.485,1.367.645a2.435,2.435,0,0,1,.486.27" transform="translate(-199.124 -60.694)" fill="#ff725e"/>
        <path id="Path_13592" data-name="Path 13592" d="M359.714,128.9a1.28,1.28,0,0,1-.286-.03l-.812-.131-2.976-.52c-2.512-.439-5.982-1.048-9.842-1.514-1.931-.226-3.777-.384-5.457-.484s-3.2-.124-4.472-.1c-.637-.005-1.212.026-1.718.04s-.941.036-1.3.059l-.82.041a1.3,1.3,0,0,1-.288,0,1.248,1.248,0,0,1,.283-.047l.817-.087c.355-.038.791-.077,1.3-.1s1.082-.07,1.721-.076c1.277-.043,2.8-.023,4.486.051s3.539.239,5.474.466c3.87.467,7.34,1.1,9.845,1.586,1.253.242,2.264.448,2.963.6l.8.177a1.3,1.3,0,0,1,.277.078" transform="translate(-179.986 -68.319)" fill="#ff725e"/>
        <path id="Path_13593" data-name="Path 13593" d="M348.4,145.369a3.115,3.115,0,0,1-.629-.015c-.4-.024-.987-.075-1.707-.149-1.439-.148-3.422-.411-5.6-.807s-4.122-.851-5.522-1.221c-.7-.184-1.263-.343-1.65-.463a3.155,3.155,0,0,1-.594-.208,3.115,3.115,0,0,1,.618.116l1.667.387c1.407.326,3.356.752,5.523,1.148s4.141.684,5.572.876l1.7.226a3.109,3.109,0,0,1,.62.109" transform="translate(-180.502 -77.314)" fill="#ff725e"/>
        <path id="Path_13594" data-name="Path 13594" d="M377.737,149.007a88.578,88.578,0,0,1-9.3.088,88.581,88.581,0,0,1,9.3-.088" transform="translate(-199.891 -80.796)" fill="#ff725e"/>
        <path id="Path_13595" data-name="Path 13595" d="M345.394,160.007a2.03,2.03,0,0,1-.506-.023c-.324-.03-.791-.087-1.367-.169-1.152-.164-2.737-.444-4.467-.848s-3.275-.857-4.38-1.221c-.553-.182-1-.338-1.3-.455a2.059,2.059,0,0,1-.464-.2,2.018,2.018,0,0,1,.494.113l1.322.381c1.115.321,2.661.745,4.385,1.149s3.3.709,4.439.915l1.353.246a2.035,2.035,0,0,1,.493.117" transform="translate(-180.616 -85.223)" fill="#ff725e"/>
        <path id="Path_13596" data-name="Path 13596" d="M371.965,162.976a7.683,7.683,0,0,1-1.473.015c-.909-.033-2.164-.124-3.541-.3s-2.614-.412-3.5-.613a7.717,7.717,0,0,1-1.42-.391,10.232,10.232,0,0,1,1.454.222c.893.156,2.128.361,3.5.539s2.617.3,3.52.372a10.234,10.234,0,0,1,1.463.157" transform="translate(-196.415 -87.717)" fill="#ff725e"/>
        <path id="Path_13597" data-name="Path 13597" d="M355.956,176.027a.615.615,0,0,1-.186.075c-.124.039-.306.1-.547.166a17.851,17.851,0,0,1-2.059.428,26.847,26.847,0,0,1-6.926.058,54.16,54.16,0,0,1-6.809-1.276c-.86-.212-1.553-.394-2.031-.525a4.6,4.6,0,0,1-.736-.228,4.655,4.655,0,0,1,.758.136l2.048.45a66.109,66.109,0,0,0,6.8,1.2,29.259,29.259,0,0,0,6.875.014c.875-.111,1.577-.244,2.06-.349a5.4,5.4,0,0,1,.755-.148" transform="translate(-182.653 -94.792)" fill="#ff725e"/>
        <path id="Path_13598" data-name="Path 13598" d="M396.431,139.941a14.4,14.4,0,0,1-2.32.189,9.216,9.216,0,0,1-2.332-.054,14.327,14.327,0,0,1,2.32-.189,9.163,9.163,0,0,1,2.331.054" transform="translate(-212.556 -75.877)" fill="#ff725e"/>
        <path id="Path_13599" data-name="Path 13599" d="M397.6,127.6a6.661,6.661,0,0,1-2.532-.165,6.661,6.661,0,0,1,2.532.165" transform="translate(-214.34 -69.101)" fill="#ff725e"/>
        <path id="Path_13600" data-name="Path 13600" d="M358.262,154.434c-.022-.042.479-.291,1.163-.859a8.116,8.116,0,0,0,1.09-1.109,8.271,8.271,0,0,0,1.642-3.4,8.074,8.074,0,0,0,.19-1.543c.02-.889-.1-1.436-.05-1.445a1.221,1.221,0,0,1,.108.378,2.909,2.909,0,0,1,.073.456,4.868,4.868,0,0,1,.042.611,7.236,7.236,0,0,1-.143,1.59,7.845,7.845,0,0,1-1.688,3.5,7.293,7.293,0,0,1-1.156,1.1,4.882,4.882,0,0,1-.505.347,2.938,2.938,0,0,1-.4.226,1.216,1.216,0,0,1-.364.15" transform="translate(-194.371 -79.253)" fill="#263238"/>
        <g id="Group_24468" data-name="Group 24468" transform="translate(161.265 70.727)" opacity="0.3">
          <g id="Group_24467" data-name="Group 24467">
            <g id="Group_24466" data-name="Group 24466" clip-path="url(#clip-path-12)">
              <path id="Path_13601" data-name="Path 13601" d="M359.069,154.607l-1.783,2.642a8.452,8.452,0,0,1-4.766,2.969,4.987,4.987,0,0,0,6.549-5.612" transform="translate(-352.52 -154.607)"/>
            </g>
          </g>
        </g>
        <path id="Path_13602" data-name="Path 13602" d="M372.43,74.577a8.858,8.858,0,0,0,4.91-1,10.409,10.409,0,0,1-4.286-6.288,46.293,46.293,0,0,1-1.572-9.39l-4.052,18.009a10.909,10.909,0,0,0,6.43-.5,1.774,1.774,0,0,1-1.429-.833" transform="translate(-199.344 -31.411)" fill="#263238"/>
        <path id="Path_13603" data-name="Path 13603" d="M338.058,87.768a12.689,12.689,0,0,1-.979-6.439l-8.171-3.1a14.424,14.424,0,0,1-2.606,6.141c-.5.677-1.094,1.463-.859,2.271a1.706,1.706,0,0,0,1.267,1.083,5.037,5.037,0,0,0,1.736.021L327.4,88.887a62.757,62.757,0,0,1,10.656-1.118" transform="translate(-176.536 -42.444)" fill="#263238"/>
        <path id="Path_13604" data-name="Path 13604" d="M340.663,40.23c-2.577-.266-4.753.861-6.807,2.439A13.162,13.162,0,0,0,329.6,57.031a10.122,10.122,0,0,0,5.38,5.864,10.232,10.232,0,0,0,10.445-1.834,12.819,12.819,0,0,0,4.171-9.98,12.309,12.309,0,0,0-2.422-7.176,9.376,9.376,0,0,0-6.515-3.676" transform="translate(-178.453 -21.805)" fill="#263238"/>
        <path id="Path_13605" data-name="Path 13605" d="M339.664,49.415a14.131,14.131,0,0,0,.173-3.121,6.788,6.788,0,0,1,3.952-5.267,9.9,9.9,0,0,1,6.765-.319,9.089,9.089,0,0,1,4.429,2.49,7.161,7.161,0,0,1,1.734,6.332L344.964,48.6a13.006,13.006,0,0,1-3.376,2.552,2.409,2.409,0,0,1-1.2.273,1.086,1.086,0,0,1-.954-.688,2.3,2.3,0,0,1,.232-1.318" transform="translate(-184.133 -21.85)" fill="#263238"/>
        <path id="Path_13606" data-name="Path 13606" d="M350.951,48.173l-10.022,2.818a1.9,1.9,0,0,0-1.65,1.974l1.562,21.987a6.843,6.843,0,0,0,1.7,4.054l1.051,1.187a5.027,5.027,0,0,0,8.334-1.172,2.424,2.424,0,0,0,.2-.591,4.563,4.563,0,0,0,.063-.5,15.946,15.946,0,0,0-.042-3.342c-.029-1.965-.051-2.77-.049-2.752,0,0,4.125-.8,4.84-6.227a57.758,57.758,0,0,0-.22-10.7c-.29-3.238-2.545-7.16-5.767-6.732" transform="translate(-184.071 -26.118)" fill="#ffbe9d"/>
        <path id="Path_13607" data-name="Path 13607" d="M371.547,69.774a.693.693,0,0,1-.65.717.663.663,0,0,1-.731-.606.693.693,0,0,1,.649-.717.663.663,0,0,1,.732.606" transform="translate(-200.828 -37.525)" fill="#263238"/>
        <path id="Path_13608" data-name="Path 13608" d="M372.2,67.173c-.083.093-.619-.282-1.365-.26s-1.283.409-1.366.32c-.041-.039.042-.2.276-.385a1.9,1.9,0,0,1,1.091-.368,1.827,1.827,0,0,1,1.09.32c.234.17.316.331.275.373" transform="translate(-200.444 -36.067)" fill="#263238"/>
        <path id="Path_13609" data-name="Path 13609" d="M356.109,70.586a.693.693,0,0,1-.65.717.663.663,0,0,1-.731-.606.694.694,0,0,1,.649-.718.664.664,0,0,1,.732.607" transform="translate(-192.453 -37.965)" fill="#263238"/>
        <path id="Path_13610" data-name="Path 13610" d="M356.174,67.9c-.084.093-.62-.282-1.366-.26s-1.283.409-1.366.32c-.041-.039.042-.2.276-.385a1.9,1.9,0,0,1,1.091-.368,1.829,1.829,0,0,1,1.09.32c.233.17.316.331.275.373" transform="translate(-191.751 -36.464)" fill="#263238"/>
        <path id="Path_13611" data-name="Path 13611" d="M365.056,73.3a5.01,5.01,0,0,1,1.206-.25c.19-.025.369-.067.4-.2a.969.969,0,0,0-.142-.561l-.6-1.436a24.912,24.912,0,0,1-1.366-3.76,24.914,24.914,0,0,1,1.666,3.642q.3.756.578,1.445a1.1,1.1,0,0,1,.119.745.479.479,0,0,1-.306.287,1.288,1.288,0,0,1-.322.054,4.8,4.8,0,0,1-1.228.034" transform="translate(-197.778 -36.401)" fill="#263238"/>
        <path id="Path_13612" data-name="Path 13612" d="M358.657,97.868a13.756,13.756,0,0,1-7.291-1.739s1.92,3.694,7.317,3.044Z" transform="translate(-190.63 -52.154)" fill="#eb996e"/>
        <path id="Path_13613" data-name="Path 13613" d="M362.455,84.042a1.344,1.344,0,0,0-1.218-.467,1.228,1.228,0,0,0-.836.477.778.778,0,0,0-.035.891.9.9,0,0,0,.984.221,2.824,2.824,0,0,0,.938-.595.817.817,0,0,0,.207-.226.249.249,0,0,0-.008-.278" transform="translate(-195.445 -45.336)" fill="#eb996e"/>
        <path id="Path_13614" data-name="Path 13614" d="M360.764,81.917c.121-.011.144.8.853,1.356s1.568.444,1.577.557c.013.051-.188.162-.552.182a2.016,2.016,0,0,1-1.316-.42,1.756,1.756,0,0,1-.663-1.138c-.04-.338.045-.541.1-.538" transform="translate(-195.668 -44.443)" fill="#263238"/>
        <path id="Path_13615" data-name="Path 13615" d="M355.54,63.168c-.068.2-.816.129-1.688.257-.875.111-1.574.386-1.695.207-.054-.086.064-.28.344-.484a2.969,2.969,0,0,1,2.577-.354c.325.121.49.276.462.373" transform="translate(-191.052 -33.988)" fill="#263238"/>
        <path id="Path_13616" data-name="Path 13616" d="M371.767,60c-.127.173-.645.011-1.263.019-.618-.013-1.138.144-1.263-.03-.055-.085.023-.257.247-.423a1.832,1.832,0,0,1,2.036.009c.223.168.3.341.244.425" transform="translate(-200.317 -32.151)" fill="#263238"/>
        <path id="Path_13617" data-name="Path 13617" d="M335.355,48.074c.851-3.164,5.176-7.682,8.451-7.6l5.356,2.89a5.037,5.037,0,0,1-3.238,4c-.909.323-2.016.451-2.528,1.268-.523.835-.142,2-.625,2.857-.67,1.19-2.646,1.225-3.13,2.5-.212.558-.059,1.205-.28,1.759a3.509,3.509,0,0,1-2.851,1.532c-.768-.205-.828-1.494-1.107-2.158a3.576,3.576,0,0,1-.218-2.392c.26-1.541-.234-3.151.172-4.66" transform="translate(-181.79 -21.957)" fill="#263238"/>
        <path id="Path_13618" data-name="Path 13618" d="M338.619,76.7c-.012-.4-.5-1.339-.9-1.391-1.066-.137-2.977,0-2.923,2.7.074,3.687,3.759,2.852,3.764,2.746,0-.082.1-2.661.061-4.051" transform="translate(-181.638 -40.841)" fill="#ffbe9d"/>
        <path id="Path_13619" data-name="Path 13619" d="M338.515,80.8c-.016-.011-.064.046-.171.1a.644.644,0,0,1-.48.019,1.589,1.589,0,0,1-.764-1.411,2.124,2.124,0,0,1,.161-.923.74.74,0,0,1,.473-.5.328.328,0,0,1,.383.168c.051.1.029.177.049.182s.078-.063.045-.215a.41.41,0,0,0-.15-.228.486.486,0,0,0-.357-.087.9.9,0,0,0-.659.585,2.178,2.178,0,0,0-.2,1.032,1.667,1.667,0,0,0,.968,1.573.689.689,0,0,0,.586-.109c.112-.093.13-.176.117-.183" transform="translate(-182.749 -42.264)" fill="#eb996e"/>
        <path id="Path_13620" data-name="Path 13620" d="M325.209,52.7h0c-.063-1.151-1.548-1.809-2.686-2a4.79,4.79,0,0,0-3.271.85,2.359,2.359,0,0,0-1.222,1.529c-.089.668.6,1.413,1.212,1.136a2.184,2.184,0,1,0,2.355,3.589,4.881,4.881,0,0,1-1.74,2.734,5.479,5.479,0,0,0,5.353-7.841" transform="translate(-172.493 -27.484)" fill="#263238"/>
        <path id="Path_13621" data-name="Path 13621" d="M319.8,84.232c.018-.175.476-.255,1.134-.452a6.407,6.407,0,0,0,3.98-3.111c.349-.591.538-1.016.712-.992.157.019.276.52.09,1.307a4.909,4.909,0,0,1-4.67,3.65c-.809-.01-1.267-.246-1.247-.4" transform="translate(-173.506 -43.228)" fill="#263238"/>
        <path id="Path_13622" data-name="Path 13622" d="M328.815,59.876a3.3,3.3,0,0,1-.21-1.094,8.114,8.114,0,0,1,1.363-5.131,3.3,3.3,0,0,1,.725-.846,12.273,12.273,0,0,0-1.6,3.36,12.284,12.284,0,0,0-.276,3.712" transform="translate(-178.268 -28.648)" fill="#ff725e"/>
        <path id="Path_13623" data-name="Path 13623" d="M363.378,44.373c.436,1.474,2.836,3.244,3.911,4.344,2.05,2.1,2.474,2.812,2.781,7.782a10.549,10.549,0,0,0,1.17-5.434,8.037,8.037,0,0,0-2.473-5.13,6.258,6.258,0,0,0-5.388-1.562" transform="translate(-197.147 -24.01)" fill="#263238"/>
        <path id="Path_13624" data-name="Path 13624" d="M395.863,132.729s-2.462,10.225-3.475,14.641c-1.076,4.692-3.405,15.34-9.648,13.8-4.748-1.172-3.692-7.3-3.692-7.3l4.055-14.077,3.752.425,3.445-8.479,3.712-3.913Z" transform="translate(-205.594 -69.349)" fill="#ffbe9d"/>
        <path id="Path_13625" data-name="Path 13625" d="M382.372,168.756a5.214,5.214,0,0,1-.122-2.277,7.1,7.1,0,0,1,.877-2.316,20.064,20.064,0,0,1,1.813-2.479,19.779,19.779,0,0,0,1.818-2.522,15.208,15.208,0,0,0,1.105-2.289,13.78,13.78,0,0,0,.515-1.632,2.553,2.553,0,0,0,.113-.617,3.559,3.559,0,0,0-.208.59c-.125.382-.309.932-.586,1.592a16.839,16.839,0,0,1-1.139,2.235,21.371,21.371,0,0,1-1.816,2.483,18.711,18.711,0,0,0-1.819,2.523,6.963,6.963,0,0,0-.851,2.4,4.424,4.424,0,0,0,.07,1.718,3.017,3.017,0,0,0,.152.443c.043.1.07.147.078.144" transform="translate(-207.261 -83.889)" fill="#eb996e"/>
        <path id="Path_13626" data-name="Path 13626" d="M403.121,128.456c0-.18.09-3.157.15-3.937a4.011,4.011,0,0,1,.409-1.412,1.2,1.2,0,0,1,1.866-.33l.067.06a5.253,5.253,0,0,1,1.471-1.771c.871-.57,1.592-.961,2.342-.511a1.294,1.294,0,0,1,.721,1.081s1.111-.15,1.591.3,0,1.8,0,1.8.991-.3,1.231.42a1.993,1.993,0,0,1-.21,1.471s.78.24.871.811-.781,1.2-.781,1.2l-2.71,2.156a5.15,5.15,0,0,1-2.092,2.765c-1.885.726-4.925-4.107-4.925-4.107" transform="translate(-218.709 -65.3)" fill="#ffbe9d"/>
        <path id="Path_13627" data-name="Path 13627" d="M406.014,131.018c.029.012.024.115-.055.255a.96.96,0,0,1-1.1.423c-.153-.051-.225-.124-.212-.152.026-.063.372.048.746-.1s.559-.456.62-.426" transform="translate(-219.536 -71.081)" fill="#eb996e"/>
        <path id="Path_13628" data-name="Path 13628" d="M411.917,123.963c-.04.054-.3-.127-.347-.482s.151-.6.2-.558,0,.258.038.525.154.467.105.516" transform="translate(-223.289 -66.688)" fill="#eb996e"/>
        <path id="Path_13629" data-name="Path 13629" d="M417,127.729c.022.023-.194.278-.6.63a16.939,16.939,0,0,1-1.687,1.238,2.609,2.609,0,0,1-1.079.5.979.979,0,0,1-.934-.34.685.685,0,0,1-.073-.668c.075-.149.168-.183.174-.173s-.049.074-.085.206a.618.618,0,0,0,.122.531.822.822,0,0,0,.765.222,2.619,2.619,0,0,0,.975-.481c.679-.45,1.289-.856,1.715-1.171a4.3,4.3,0,0,1,.709-.495" transform="translate(-223.833 -69.297)" fill="#eb996e"/>
        <path id="Path_13630" data-name="Path 13630" d="M418.709,131.9a17.314,17.314,0,0,1-2.587,1.314,2.619,2.619,0,0,1-1.121.329.884.884,0,0,1-.84-.5.52.52,0,0,1,0-.4.476.476,0,0,1,.2-.225c.149-.082.247-.038.241-.027s-.086.018-.186.1a.391.391,0,0,0-.088.48.716.716,0,0,0,.683.345,2.629,2.629,0,0,0,1.019-.327,17.353,17.353,0,0,1,2.688-1.092" transform="translate(-224.675 -71.559)" fill="#eb996e"/>
        <path id="Path_13631" data-name="Path 13631" d="M419.069,135.807c.012.027-.146.138-.446.213a2.056,2.056,0,0,1-.538.057,1.457,1.457,0,0,1-.673-.153.41.41,0,0,1-.2-.389.67.67,0,0,1,.149-.333,2.184,2.184,0,0,1,.387-.378c.247-.184.429-.242.444-.215s-.129.141-.33.345a3.067,3.067,0,0,0-.319.38c-.1.153-.142.306,0,.385a1.5,1.5,0,0,0,.554.134,2.7,2.7,0,0,0,.5,0c.285-.027.462-.077.475-.043" transform="translate(-226.353 -73.027)" fill="#eb996e"/>
        <path id="Path_13632" data-name="Path 13632" d="M410.385,135.5a2.218,2.218,0,1,0-2.811,2.053l-.023.617.6.455-.635.355-.029.771.6.455-.635.355-.025.663.368.277-.387.216-.014.386.459.522.917-.545.172-4.588a2.217,2.217,0,0,0,1.433-1.992m-2.155-1.7a.636.636,0,1,1-.66.612.636.636,0,0,1,.66-.612" transform="translate(-220.244 -72.265)" fill="#263238"/>
        <path id="Path_13633" data-name="Path 13633" d="M410.121,134.5c0,.006-.057,0-.154.025a.632.632,0,0,0-.346.22.612.612,0,1,0,.979.037.632.632,0,0,0-.328-.245c-.1-.03-.152-.03-.151-.036a.111.111,0,0,1,.041,0,.508.508,0,0,1,.116.017.635.635,0,0,1,.354.243.656.656,0,0,1-.164.926.656.656,0,0,1-.783-.03.656.656,0,0,1-.094-.935.631.631,0,0,1,.371-.216.494.494,0,0,1,.118-.009.115.115,0,0,1,.041.005" transform="translate(-222.136 -72.968)" fill="#263238"/>
        <path id="Path_13634" data-name="Path 13634" d="M410.358,135.479s0,.015,0,.044,0,.074-.008.13a2.325,2.325,0,0,1-.112.5,2.233,2.233,0,0,1-1.307,1.337l.011-.015c-.043,1.185-.1,2.76-.164,4.588v.014l-.011.007-.917.546-.019.011-.014-.016-.459-.521-.007-.008v-.011c0-.12.009-.252.014-.386v-.015l.013-.007.387-.216,0,.045-.368-.277-.011-.009V141.2c.008-.209.016-.435.025-.663v-.015l.014-.008.634-.355,0,.046-.6-.455-.012-.009v-.014c0-.065.005-.134.008-.2q.01-.285.021-.567v-.016l.013-.007.635-.355,0,.046-.6-.456-.011-.008v-.015c.008-.207.016-.413.024-.616l.02.027a2.266,2.266,0,0,1-.916-.513,2.135,2.135,0,0,1-.336-.39,2.181,2.181,0,0,1-.236-.446,2.234,2.234,0,0,1,3.788-2.257,2.192,2.192,0,0,1,.426.781l.026.085.017.082c.01.053.024.1.029.148.008.093.022.172.021.236s0,.11,0,.145,0,.049,0,.049,0-.016,0-.049,0-.082,0-.145-.016-.141-.026-.234c-.006-.046-.021-.095-.031-.147l-.018-.081-.027-.084a2.218,2.218,0,0,0-1.394-1.425,2.2,2.2,0,0,0-2.754,2.876,2.126,2.126,0,0,0,.231.436,2.1,2.1,0,0,0,.328.38,2.217,2.217,0,0,0,.895.5l.021.006v.021q-.012.305-.023.617l-.011-.023.6.455.033.026-.037.021-.635.355.014-.023c-.007.188-.014.377-.021.567,0,.07-.006.14-.008.2l-.011-.023.6.455.034.026-.037.021-.635.355.014-.023c-.009.228-.017.455-.025.663l-.011-.023.368.277.033.025-.036.02-.387.216.013-.022-.015.386-.006-.019.459.522-.033-.005.918-.544-.012.021c.072-1.827.134-3.4.181-4.587v-.011l.011,0a2.222,2.222,0,0,0,1.3-1.312,2.456,2.456,0,0,0,.12-.491c.005-.056.009-.1.012-.13s.005-.044.005-.044" transform="translate(-220.217 -72.245)" fill="#263238"/>
        <path id="Path_13635" data-name="Path 13635" d="M409.882,135.223a2.218,2.218,0,1,0-2.811,2.053h0l-.023.616.6.455-.635.355-.029.771.6.455-.635.355-.025.663.368.277-.387.216-.014.386.459.522.917-.545.172-4.588a2.217,2.217,0,0,0,1.433-1.992m-2.155-1.7a.636.636,0,1,1-.66.612.636.636,0,0,1,.66-.612" transform="translate(-219.971 -72.116)" fill="#8ed24c"/>
        <path id="Path_13636" data-name="Path 13636" d="M409.618,134.223c0,.006-.057,0-.154.025a.633.633,0,0,0-.346.22.612.612,0,1,0,.979.037.632.632,0,0,0-.328-.245c-.1-.03-.152-.03-.151-.036a.11.11,0,0,1,.041,0,.488.488,0,0,1,.116.017.631.631,0,0,1,.354.243.656.656,0,0,1-.164.926.656.656,0,0,1-.783-.03.656.656,0,0,1-.094-.935.631.631,0,0,1,.371-.216.494.494,0,0,1,.118-.009.114.114,0,0,1,.041.005" transform="translate(-221.863 -72.818)" fill="#263238"/>
        <path id="Path_13637" data-name="Path 13637" d="M409.855,135.2s0,.015,0,.044,0,.074-.008.13a2.329,2.329,0,0,1-.112.5,2.234,2.234,0,0,1-1.307,1.337l.011-.015c-.043,1.185-.1,2.76-.164,4.588v.014l-.011.007-.917.546-.018.011-.015-.016-.459-.521-.007-.008V141.8c0-.12.009-.252.014-.386V141.4l.013-.007.387-.216,0,.045-.368-.277-.011-.009v-.014c.008-.209.016-.435.025-.663v-.015l.014-.008.634-.355,0,.046-.6-.455-.011-.009v-.014c0-.065.005-.135.008-.2.007-.19.014-.379.021-.567v-.016l.013-.007.635-.355,0,.046-.6-.456-.011-.008v-.015c.008-.207.016-.413.023-.616l.02.027a2.266,2.266,0,0,1-.916-.513,2.135,2.135,0,0,1-.336-.39,2.2,2.2,0,0,1-.236-.446,2.234,2.234,0,0,1,3.788-2.257,2.191,2.191,0,0,1,.426.781l.027.085c.005.028.011.056.017.082.011.053.024.1.029.148.008.093.021.172.021.236s0,.11,0,.145,0,.049,0,.049,0-.016,0-.049,0-.082,0-.145-.016-.141-.026-.234c-.006-.046-.02-.095-.031-.147l-.018-.081-.027-.084a2.218,2.218,0,0,0-1.394-1.425,2.2,2.2,0,0,0-2.754,2.876,2.124,2.124,0,0,0,.231.436,2.1,2.1,0,0,0,.328.38,2.217,2.217,0,0,0,.895.5l.021.006v.021q-.012.305-.023.617l-.011-.023.6.455.034.026-.037.021-.635.355.014-.023c-.007.188-.014.377-.021.567,0,.07-.005.14-.008.2l-.011-.023.6.455.034.026-.037.021-.635.355.014-.023c-.009.228-.017.455-.025.663l-.011-.023.368.277.033.025-.036.02-.387.216.013-.022c-.005.134-.01.266-.015.386l-.006-.019.459.522-.033-.005.918-.544-.012.021c.072-1.827.134-3.4.181-4.587v-.011l.01,0a2.223,2.223,0,0,0,1.3-1.312,2.458,2.458,0,0,0,.12-.491c.005-.056.009-.1.012-.13s.005-.044.005-.044" transform="translate(-219.944 -72.095)" fill="#263238"/>
        <path id="Path_13638" data-name="Path 13638" d="M409.9,135.57a3.043,3.043,0,0,0-.053-.476,1.88,1.88,0,0,0-.2-.523,1.931,1.931,0,0,0-2.287-.907,1.8,1.8,0,0,0-.5.244,1.765,1.765,0,0,0-.422.393,1.917,1.917,0,0,0-.086,2.274,2.215,2.215,0,0,0,.18.23,2.151,2.151,0,0,0,.211.194,1.814,1.814,0,0,0,.477.281,1.937,1.937,0,0,0,2.348-.733,1.863,1.863,0,0,0,.237-.506,3.071,3.071,0,0,0,.089-.471.132.132,0,0,1,0,.032c0,.024,0,.055-.005.093a.914.914,0,0,1-.018.151,1.364,1.364,0,0,1-.045.2,1.842,1.842,0,0,1-.231.517,1.967,1.967,0,0,1-1.359.885,1.974,1.974,0,0,1-1.034-.122,1.852,1.852,0,0,1-.491-.286,1.807,1.807,0,0,1-.4-.435,1.966,1.966,0,0,1,.088-2.338,1.8,1.8,0,0,1,.434-.4,1.868,1.868,0,0,1,.511-.249,1.977,1.977,0,0,1,1.041-.043,1.968,1.968,0,0,1,1.289.984,1.842,1.842,0,0,1,.192.533,1.371,1.371,0,0,1,.029.2.869.869,0,0,1,.007.151c0,.038,0,.069,0,.093a.124.124,0,0,1,0,.032" transform="translate(-220.253 -72.441)" fill="#263238"/>
        <path id="Path_13639" data-name="Path 13639" d="M410.192,134.752c-.006,0,0-.067-.027-.181a.744.744,0,0,0-.258-.408.725.725,0,0,0-.681-.125.713.713,0,0,0-.342.239.715.715,0,0,0-.032.849.71.71,0,0,0,.324.264.723.723,0,0,0,.688-.073.743.743,0,0,0,.288-.387c.034-.112.034-.178.04-.178a.159.159,0,0,1,0,.048.6.6,0,0,1-.021.136.744.744,0,0,1-.285.414.758.758,0,0,1-.327.134.767.767,0,0,1-.753-.327.765.765,0,0,1,.034-.913.757.757,0,0,1,.369-.254.77.77,0,0,1,.406-.016.752.752,0,0,1,.315.159.741.741,0,0,1,.254.433.588.588,0,0,1,.011.138.157.157,0,0,1-.005.048" transform="translate(-221.721 -72.675)" fill="#263238"/>
        <path id="Path_13640" data-name="Path 13640" d="M411.017,147.028c-.015,0,.011-1.046.06-2.334s.1-2.333.115-2.332-.012,1.046-.06,2.334-.1,2.332-.115,2.332" transform="translate(-222.99 -77.237)" fill="#263238"/>
        <path id="Path_13641" data-name="Path 13641" d="M410.5,131.376a.318.318,0,0,1-.3,0v-2.812l.3.021Z" transform="translate(-222.549 -69.751)" fill="#e0e0e0"/>
        <path id="Path_13642" data-name="Path 13642" d="M410.334,131.409a.343.343,0,0,1-.153-.038l-.007,0v-2.831l.321.022v2.809l-.007,0a.345.345,0,0,1-.154.038m-.136-.055a.305.305,0,0,0,.273,0v-2.773l-.273-.019Z" transform="translate(-222.535 -69.736)" fill="#263238"/>
        <path id="Path_13643" data-name="Path 13643" d="M405.938,125.542a6.815,6.815,0,0,0,.794.582,1.052,1.052,0,0,1,.482.817.989.989,0,0,1-.586.772,1.852,1.852,0,0,1-2.478-.743" transform="translate(-219.267 -68.111)" fill="#ffbe9d"/>
        <path id="Path_13644" data-name="Path 13644" d="M404.146,126.97a4.667,4.667,0,0,0,.621.556,1.805,1.805,0,0,0,1.85.052.777.777,0,0,0,.465-.8,1.256,1.256,0,0,0-.508-.665c-.432-.294-.675-.549-.64-.576s.27.169.738.435a1.358,1.358,0,0,1,.629.754.806.806,0,0,1-.1.614,1.3,1.3,0,0,1-.466.444,1.94,1.94,0,0,1-1.168.237,1.839,1.839,0,0,1-.9-.358c-.445-.343-.548-.693-.524-.7" transform="translate(-219.263 -68.111)" fill="#eb996e"/>
        <path id="Path_13645" data-name="Path 13645" d="M412.312,122.954a11.077,11.077,0,0,0-1.368,2.012,1.688,1.688,0,0,0-.205.721.718.718,0,0,0,.336.637.729.729,0,0,0,.624,0,1.95,1.95,0,0,0,.523-.374,12.573,12.573,0,0,0,1.7-1.89,1.961,1.961,0,0,0,.3-.537.743.743,0,0,0-.039-.6" transform="translate(-222.841 -66.69)" fill="#ffbe9d"/>
        <path id="Path_13646" data-name="Path 13646" d="M414.05,122.921c.008-.01.117.094.13.341a1.5,1.5,0,0,1-.376.914,10.929,10.929,0,0,1-.907,1.126c-.184.2-.385.4-.6.609a2.279,2.279,0,0,1-.776.555.862.862,0,0,1-.529.013.7.7,0,0,1-.4-.342,1.105,1.105,0,0,1-.018-.916,5.842,5.842,0,0,1,.729-1.264,5.356,5.356,0,0,1,.87-1,10.63,10.63,0,0,1-.728,1.1,6.488,6.488,0,0,0-.659,1.24.889.889,0,0,0,.016.727.5.5,0,0,0,.643.212,2.147,2.147,0,0,0,.689-.5c.214-.2.414-.395.6-.588a13.857,13.857,0,0,0,.932-1.075,1.542,1.542,0,0,0,.419-.813,1.587,1.587,0,0,0-.036-.339" transform="translate(-222.704 -66.689)" fill="#eb996e"/>
      </g>
    </g>
    <g id="Group_24472" data-name="Group 24472">
      <g id="Group_24471" data-name="Group 24471" clip-path="url(#clip-path)">
        <path id="Path_13647" data-name="Path 13647" d="M198.557,444.144c0,.066-44.452.119-99.274.119-54.84,0-99.283-.053-99.283-.119s44.443-.119,99.283-.119c54.822,0,99.274.053,99.274.119" transform="translate(0 -240.901)" fill="#263238"/>
      </g>
    </g>
    <g id="Group_24474" data-name="Group 24474">
      <g id="Group_24473" data-name="Group 24473" clip-path="url(#clip-path)">
        <path id="Path_13648" data-name="Path 13648" d="M41.087,276.068c4.354-6.66,4.186-16.394-1.014-22.416-1.614-1.869-3.87-3.494-6.33-3.283-2.519.216-4.549,2.377-5.316,4.786a15.665,15.665,0,0,0-.051,7.508c.631,3.484,1.687,7.049,4.1,9.636s5.5,5.466,8.607,3.769" transform="translate(-15.16 -135.825)" fill="#68a72b"/>
        <path id="Path_13649" data-name="Path 13649" d="M42.137,361.321a9.951,9.951,0,0,0-2.775-11.3A4.183,4.183,0,0,0,35.8,348.9,3.456,3.456,0,0,0,33.5,351.85a8.194,8.194,0,0,0,.654,3.873,9.784,9.784,0,0,0,2.987,4.593c1.479,1.114,3.55,2.162,5,1.006" transform="translate(-18.15 -189.244)" fill="#68a72b"/>
        <path id="Path_13650" data-name="Path 13650" d="M75.084,351.994a14.4,14.4,0,0,1,7.259-15.2c1.659-.862,3.7-1.373,5.372-.536a5,5,0,0,1,2.4,4.856,11.858,11.858,0,0,1-2.068,5.3c-1.419,2.274-3.16,4.485-5.585,5.629s-5.667,2.019-7.377-.046" transform="translate(-40.598 -182.202)" fill="#68a72b"/>
        <path id="Path_13651" data-name="Path 13651" d="M73.023,312.188c-2.085-6.727,1.45-14.883,7.34-18.743,1.828-1.2,4.144-2.032,6.186-1.253a5.848,5.848,0,0,1,3.359,5.366,13.867,13.867,0,0,1-1.784,6.4c-1.384,2.812-3.151,5.588-5.837,7.2s-7.034,3.226-9.265,1.026" transform="translate(-39.291 -158.362)" fill="#68a72b"/>
        <path id="Path_13652" data-name="Path 13652" d="M64.58,374.913a1.482,1.482,0,0,0,.068-.326l.14-.938q.043-.311.094-.678.071-.372.154-.8c.109-.574.222-1.229.411-1.941q.13-.537.271-1.121l.352-1.2c.224-.835.556-1.7.866-2.619A45.863,45.863,0,0,1,72.9,354.184c.6-.768,1.131-1.521,1.7-2.17l.806-.957.785-.846c.489-.55.973-1.007,1.391-1.415l.581-.57.513-.453.7-.635a1.456,1.456,0,0,0,.234-.237,1.449,1.449,0,0,0-.27.192l-.741.6-.532.436-.6.556c-.43.4-.926.848-1.427,1.392l-.8.838-.823.951c-.583.646-1.129,1.4-1.734,2.167a43.916,43.916,0,0,0-6,11.172c-.306.928-.63,1.8-.846,2.642l-.338,1.211-.255,1.132c-.177.718-.276,1.38-.371,1.959l-.131.807q-.038.371-.07.684c-.035.386-.064.7-.087.946a1.447,1.447,0,0,0-.011.332" transform="translate(-35.034 -188.206)" fill="#263238"/>
        <path id="Path_13653" data-name="Path 13653" d="M64.164,353.884a.477.477,0,0,0,0-.134c-.008-.1-.017-.233-.029-.39-.034-.365-.08-.864-.138-1.495q-.048-.49-.106-1.079c-.03-.4-.041-.826-.065-1.288-.034-.925-.123-1.975-.09-3.14q0-.874.009-1.827c.007-.635.067-1.294.1-1.977.046-1.369.232-2.82.4-4.349a62.292,62.292,0,0,1,5.667-19.11c.7-1.372,1.331-2.69,2.038-3.862.345-.591.655-1.176,1-1.712l.989-1.536c.608-.994,1.254-1.827,1.787-2.583.272-.374.516-.729.756-1.044l.677-.846.93-1.177.237-.311a.459.459,0,0,0,.073-.113s-.036.028-.1.093l-.258.293-.973,1.145-.7.833c-.247.311-.5.662-.777,1.032-.547.749-1.207,1.576-1.828,2.567l-1.007,1.532c-.347.535-.662,1.119-1.013,1.71-.719,1.172-1.365,2.491-2.07,3.866a60.876,60.876,0,0,0-5.691,19.191c-.158,1.537-.336,2.995-.372,4.369-.027.686-.082,1.348-.082,1.985s.006,1.249.009,1.833c-.019,1.168.083,2.222.133,3.148.032.462.05.894.088,1.289s.091.752.131,1.079q.121.943.191,1.49c.023.156.042.283.057.387a.458.458,0,0,0,.029.13" transform="translate(-34.465 -165.968)" fill="#263238"/>
        <path id="Path_13654" data-name="Path 13654" d="M40.143,267.972a.481.481,0,0,0,.056.124l.188.35.744,1.328c.16.289.351.6.536.96l.583,1.172.671,1.344c.227.481.443,1,.683,1.541s.495,1.1.736,1.7.473,1.228.723,1.876l.38.989.35,1.036.729,2.162c.923,2.984,1.8,6.308,2.536,9.837.715,3.535,1.216,6.936,1.587,10.039.317,3.108.552,5.915.616,8.278.06,1.181.072,2.249.076,3.188s.019,1.748,0,2.409c-.009.643-.016,1.151-.021,1.523,0,.16,0,.29,0,.4a.47.47,0,0,0,.011.136.513.513,0,0,0,.019-.134c.007-.106.016-.236.027-.4q.027-.557.075-1.522c.039-.661.052-1.471.052-2.412s.013-2.012-.034-3.2c-.038-2.369-.253-5.183-.557-8.3-.356-3.112-.852-6.522-1.569-10.067-.74-3.539-1.625-6.87-2.565-9.859l-.742-2.165-.358-1.037-.388-.989-.74-1.875c-.247-.6-.516-1.158-.755-1.7s-.47-1.057-.7-1.537l-.693-1.339-.605-1.163c-.192-.354-.392-.665-.559-.95l-.792-1.3-.212-.335a.471.471,0,0,0-.081-.109" transform="translate(-21.779 -145.385)" fill="#263238"/>
        <path id="Path_13655" data-name="Path 13655" d="M43.378,357.3a5.877,5.877,0,0,0,.462.812c.318.509.756,1.261,1.268,2.2s1.079,2.087,1.65,3.385a45.918,45.918,0,0,1,1.6,4.32,45.953,45.953,0,0,1,1.116,4.471c.261,1.393.443,2.657.547,3.725s.172,1.934.2,2.534a5.932,5.932,0,0,0,.075.932,5.789,5.789,0,0,0,.035-.936c.011-.6-.022-1.474-.106-2.549a37.716,37.716,0,0,0-.489-3.755,42.113,42.113,0,0,0-1.1-4.507A41.872,41.872,0,0,0,47,363.592a37.531,37.531,0,0,0-1.713-3.377c-.538-.934-1-1.673-1.351-2.165a5.851,5.851,0,0,0-.556-.753" transform="translate(-23.533 -193.848)" fill="#263238"/>
        <path id="Path_13656" data-name="Path 13656" d="M60.6,401.584H41.471l2.314,19.534H58.214Z" transform="translate(-22.5 -217.875)" fill="#455a64"/>
        <path id="Path_13657" data-name="Path 13657" d="M60.661,439.676l-1.624,2.108H44.548l-1.671-2.041Z" transform="translate(-23.262 -238.541)" fill="#263238"/>
        <path id="Path_13658" data-name="Path 13658" d="M43.1,413.974c0,.079,3.969.143,8.864.143s8.865-.064,8.865-.143-3.968-.143-8.865-.143-8.864.064-8.864.143" transform="translate(-23.383 -224.519)" fill="#fafafa"/>
        <path id="Path_13659" data-name="Path 13659" d="M43.1,416.817c0,.079,3.969.143,8.864.143s8.865-.064,8.865-.143-3.968-.143-8.865-.143-8.864.064-8.864.143" transform="translate(-23.383 -226.062)" fill="#fafafa"/>
        <path id="Path_13660" data-name="Path 13660" d="M43.621,419.569c0,.079,3.83.143,8.554.143s8.554-.064,8.554-.143-3.829-.143-8.554-.143-8.554.064-8.554.143" transform="translate(-23.666 -227.555)" fill="#fafafa"/>
        <path id="Path_13661" data-name="Path 13661" d="M76.886,309.555a.655.655,0,0,0,0,.187c.012.143.026.318.043.53.049.489.116,1.147.2,1.946.174,1.643.429,3.91.722,6.413.011.1.022.191.032.28l.01.084h.085c2.457.038,4.668.061,6.265.069h1.889l.513-.01a.615.615,0,0,0,.179-.016.654.654,0,0,0-.178-.022l-.512-.026-1.888-.06c-1.6-.043-3.807-.088-6.264-.128l.095.086c-.011-.088-.021-.184-.033-.28-.293-2.5-.569-4.768-.778-6.406-.106-.8-.193-1.452-.258-1.939-.032-.21-.058-.384-.08-.526a.681.681,0,0,0-.041-.182" transform="translate(-41.711 -167.946)" fill="#263238"/>
        <path id="Path_13662" data-name="Path 13662" d="M86.374,296.786a.7.7,0,0,0-.015.192c0,.147,0,.328,0,.548,0,.505.011,1.187.018,2.016.024,1.7.071,4.053.134,6.649,0,.1.005.21.007.307l0,.1.1-.008a59.624,59.624,0,0,1,6.431-.145c.82.025,1.482.059,1.939.083l.527.025a.093.093,0,1,0,0-.038c-.119-.016-.3-.039-.524-.061-.456-.047-1.118-.1-1.939-.144a50.748,50.748,0,0,0-6.451.087l.1.094c0-.1-.005-.2-.007-.307-.064-2.6-.132-4.946-.191-6.647-.033-.828-.06-1.51-.08-2.014-.013-.219-.023-.4-.032-.547a.744.744,0,0,0-.024-.191" transform="translate(-46.85 -161.018)" fill="#263238"/>
        <path id="Path_13663" data-name="Path 13663" d="M95.576,292.436a3.429,3.429,0,0,0-.119.561c-.073.4-.168.913-.284,1.538-.248,1.3-.635,3.087-1.182,5.046l-.057.206.194-.093.229-.111a16.45,16.45,0,0,1,5.1-1.491c.678-.084,1.232-.115,1.614-.129a4.056,4.056,0,0,0,.6-.033.458.458,0,0,0-.154-.022c-.1-.006-.25-.02-.443-.021a13.726,13.726,0,0,0-1.629.068,15.5,15.5,0,0,0-5.167,1.453l-.232.112.137.112a49.082,49.082,0,0,0,1.128-5.074c.107-.654.181-1.183.224-1.55a3.241,3.241,0,0,0,.046-.572" transform="translate(-50.963 -158.658)" fill="#263238"/>
        <path id="Path_13664" data-name="Path 13664" d="M38.485,365.52c0,.029.554-.027,1.446-.062a24.3,24.3,0,0,1,3.478.113c.275.028.543.063.8.1l.091.012.016-.09c.206-1.156.38-2.176.5-2.908a7.966,7.966,0,0,0,.151-1.179,8.074,8.074,0,0,0-.274,1.157c-.15.726-.346,1.741-.56,2.9l.108-.077c-.259-.037-.53-.073-.807-.1a19.49,19.49,0,0,0-3.506-.058c-.448.035-.808.08-1.057.117a1.466,1.466,0,0,0-.382.082" transform="translate(-20.88 -196.13)" fill="#263238"/>
        <path id="Path_13665" data-name="Path 13665" d="M34.536,357.14c.007.031.536-.094,1.4-.2a15.239,15.239,0,0,1,3.394-.034c.206.021.408.048.6.075l.1.014.01-.1c.121-1.189.218-2.243.28-3a8.3,8.3,0,0,0,.062-1.22,8.19,8.19,0,0,0-.19,1.207c-.1.754-.216,1.8-.343,2.993l.109-.085c-.194-.027-.4-.055-.608-.077a13.2,13.2,0,0,0-3.433.091c-.435.07-.782.151-1.019.214a1.412,1.412,0,0,0-.363.123" transform="translate(-18.737 -191.34)" fill="#263238"/>
        <path id="Path_13666" data-name="Path 13666" d="M31.7,282.078a.878.878,0,0,0,.19.1l.559.248,2.068.881,6.852,2.838.37.151.087.036.038-.086,2.895-6.538.852-1.977.222-.54A.828.828,0,0,0,45.9,277a.869.869,0,0,0-.1.178l-.255.526-.907,1.952-2.948,6.513.125-.05-.37-.151-6.873-2.785-2.092-.824-.573-.215a.909.909,0,0,0-.2-.063" transform="translate(-17.201 -150.281)" fill="#263238"/>
        <path id="Path_13667" data-name="Path 13667" d="M28.041,264.207a.878.878,0,0,0,.168.124l.5.324,1.867,1.164,6.23,3.8.1.061.041-.11.113-.3,2.61-7.044.77-2.142.2-.586a.9.9,0,0,0,.058-.209.929.929,0,0,0-.094.2l-.234.574-.828,2.121L36.879,269.2l-.113.3.141-.05-6.26-3.748-1.9-1.112-.52-.294a.887.887,0,0,0-.188-.091" transform="translate(-15.213 -140.673)" fill="#263238"/>
        <path id="Path_13668" data-name="Path 13668" d="M29.241,254.87a2.669,2.669,0,0,0,.41.242c.269.148.658.367,1.129.66a20.152,20.152,0,0,1,3.466,2.712l.24.235-.08-.327c-.084-.342-.161-.7-.22-1.074a12.465,12.465,0,0,1,.27-5.1,14.556,14.556,0,0,1,.49-1.483,3.589,3.589,0,0,0,.2-.538,3.051,3.051,0,0,0-.274.509,11.239,11.239,0,0,0-.552,1.475,11.926,11.926,0,0,0-.33,5.164c.06.377.14.744.226,1.091l.16-.092a18.271,18.271,0,0,0-3.535-2.684c-.484-.28-.883-.483-1.163-.613a2.318,2.318,0,0,0-.442-.181" transform="translate(-15.864 -135.743)" fill="#263238"/>
        <path id="Path_13669" data-name="Path 13669" d="M76.944,354.148a2.742,2.742,0,0,0,.088.495c.067.316.162.774.267,1.344a33,33,0,0,1,.514,4.53l0,.087.087.005.428.026c1.9.114,3.614.207,4.857.265l1.473.058a2.94,2.94,0,0,0,.542-.005,2.83,2.83,0,0,0-.537-.07l-1.47-.119c-1.242-.092-2.957-.207-4.854-.321l-.429-.026.091.092a27.879,27.879,0,0,0-.576-4.547c-.122-.57-.238-1.024-.327-1.335a2.481,2.481,0,0,0-.158-.477" transform="translate(-41.744 -192.139)" fill="#263238"/>
        <path id="Path_13670" data-name="Path 13670" d="M85.156,342.37a2.654,2.654,0,0,0,.032.5c.041.355.092.81.155,1.359.139,1.151.345,2.748.586,4.54l.011.078.079.005.616.04c1.943.132,3.7.333,4.962.5l1.5.2a3.093,3.093,0,0,0,.553.056,3.021,3.021,0,0,0-.541-.13c-.351-.07-.86-.162-1.492-.262-1.264-.2-3.019-.423-4.968-.555l-.618-.04.09.083c-.246-1.791-.474-3.385-.647-4.532-.086-.545-.158-1-.214-1.351a2.6,2.6,0,0,0-.1-.489" transform="translate(-46.198 -185.749)" fill="#263238"/>
        <path id="Path_13671" data-name="Path 13671" d="M94.828,337.3c-.028.007.088.525.225,1.379a24.717,24.717,0,0,1,.308,3.385l0,.107.107-.014.321-.041A29.788,29.788,0,0,1,99.4,341.9l1.1.012a1.669,1.669,0,0,0,.405-.011,1.607,1.607,0,0,0-.4-.065c-.259-.027-.635-.057-1.1-.074a23.221,23.221,0,0,0-3.638.159l-.323.042.109.094a19.817,19.817,0,0,0-.37-3.4c-.086-.426-.169-.767-.234-1a1.409,1.409,0,0,0-.121-.356" transform="translate(-51.446 -182.997)" fill="#263238"/>
        <path id="Path_13672" data-name="Path 13672" d="M39.748,349.074a16.851,16.851,0,0,0,.854,1.941,16.772,16.772,0,0,0,.92,1.91,8.978,8.978,0,0,0-.744-1.991,8.989,8.989,0,0,0-1.029-1.86" transform="translate(-21.563 -189.386)" fill="#263238"/>
        <path id="Path_13673" data-name="Path 13673" d="M34.5,354.6a19.909,19.909,0,0,1,2.174.441,19.85,19.85,0,0,1,2.042.866,4.965,4.965,0,0,0-1.984-1.051A4.962,4.962,0,0,0,34.5,354.6" transform="translate(-18.716 -192.361)" fill="#263238"/>
      </g>
    </g>
  </g>
</svg>
